<?xml version="1.0" encoding="UTF-8"?>
<svg width="23px" height="23px" viewBox="0 0 23 23" version="1.1" xmlns="http://www.w3.org/2000/svg" xmlns:xlink="http://www.w3.org/1999/xlink">
    <title>91F067C9-2090-4A08-9184-80F1C75E7C31</title>
    <g id="Page-1" stroke="none" stroke-width="1" fill="none" fill-rule="evenodd" fill-opacity="0.2">
        <g id="SS_V2" transform="translate(-770.000000, -1552.000000)" fill="#FFFFFF" stroke="#7A85F5">
            <g id="bullet" transform="translate(771.000000, 1553.000000)">
                <path d="M21,10.5 C21,16.2990167 16.2989882,21 10.5000184,21 C4.70101178,21 0,16.2990167 0,10.5 C0,4.70102 4.70101178,0 10.5000184,0 C16.2989882,0 21,4.70102 21,10.5 Z" id="Stroke-5-Copy" transform="translate(10.500000, 10.500000) scale(1, -1) translate(-10.500000, -10.500000) "></path>
                <path d="M17,10.5 C17,14.0898675 14.0898499,17 10.5000114,17 C6.91015015,17 4,14.0898675 4,10.5 C4,6.91015524 6.91015015,4 10.5000114,4 C14.0898499,4 17,6.91015524 17,10.5 Z" id="Stroke-5-Copy" transform="translate(10.500000, 10.500000) scale(1, -1) translate(-10.500000, -10.500000) "></path>
            </g>
        </g>
    </g>
</svg>