<?xml version="1.0" encoding="UTF-8"?>
<svg width="109px" height="111px" viewBox="0 0 109 111" version="1.1" xmlns="http://www.w3.org/2000/svg" xmlns:xlink="http://www.w3.org/1999/xlink">
    <title>parks</title>
    <g id="Page-1" stroke="none" stroke-width="1" fill="none" fill-rule="evenodd">
        <g id="SS_V2" transform="translate(-1035.000000, -2577.000000)">
            <g id="parks" transform="translate(1035.002727, 2577.693172)">
                <circle id="Oval-Copy-14" fill="#FFFFFF" cx="54.497273" cy="54.8068275" r="54.5"></circle>
                <g transform="translate(27.997273, 28.306827)">
                    <path d="M0.675,9.6741 L4.709205,9.6741 C5.08362075,9.6741 5.384205,9.37351575 5.384205,8.9991 L5.384205,7.957575 C5.384205,5.7216375 7.2035325,3.90231 9.43947,3.90231 C10.2172725,3.90231 10.9766475,4.12643025 11.63322,4.5509445 C11.809881,4.66432425 12.031362,4.69068975 12.2291167,4.6194975 C12.4268715,4.54830525 12.5797995,4.38746625 12.6430807,4.187079 C13.1783355,2.489049 14.7340282,1.3499865 16.5138007,1.3499865 C18.6495682,1.3499865 20.4267082,3.0216915 20.5532707,5.1573915 C20.5638142,5.3577855 20.6640112,5.53971825 20.8248502,5.65836975 C20.9856892,5.77702125 21.1887157,5.821848 21.383838,5.7717495 C23.582853,5.24440575 25.489188,6.9134445 25.489188,8.9990595 C25.489188,9.37347525 25.7897722,9.6740595 26.164188,9.6740595 L29.528658,9.6740595 C29.3256315,10.214586 29.2096125,10.797327 29.2096125,11.409012 L29.2096125,12.3502995 C29.2096125,12.7247152 29.5101967,13.0252995 29.8846125,13.0252995 C30.2590282,13.0252995 30.5596125,12.7247152 30.5596125,12.3502995 L30.5596125,11.409012 C30.5596125,9.4209345 32.1759,7.804647 34.161345,7.804647 C34.8547725,7.804647 35.52714,8.005041 36.1125,8.38208925 C36.289161,8.495469 36.5080095,8.5218345 36.7083967,8.45064225 C36.9061515,8.37945 37.0590795,8.218611 37.1223607,8.01822375 C37.5969667,6.51000375 38.9786107,5.49487125 40.5606757,5.49487125 C42.4591132,5.49487125 44.0358457,6.98196375 44.1518782,8.88040125 C44.1624218,9.08079525 44.2626187,9.2653605 44.426097,9.3813795 C44.586936,9.500031 44.7899625,9.53957925 44.9877172,9.49475925 C46.8940522,9.03069675 48.6211072,10.5046268 48.6211072,12.3529792 C48.6211072,12.727395 48.9216915,13.0279792 49.2961072,13.0279792 L53.3250472,13.02534 C53.699463,13.02534 54.0000473,12.7247558 54.0000473,12.35034 C54.0000473,11.9759243 53.699463,11.67534 53.3250472,11.67534 L49.9210222,11.67534 C49.5835222,9.5395725 47.6560597,7.92855 45.4043272,8.068275 C44.927082,5.8165425 42.9257947,4.1448375 40.5632947,4.1448375 C38.6595922,4.1448375 36.9668272,5.210055 36.1388722,6.8658975 C35.5192425,6.594318 34.8468547,6.454566 34.1639572,6.454566 C32.5977547,6.454566 31.2029347,7.1875485 30.2932372,8.3239785 L26.7916747,8.3239785 C26.4462637,5.9509485 24.3184072,4.136886 21.8030197,4.339926 C21.3099525,1.8561285 19.1109172,-0.0001215 16.5137872,-0.0001215 C14.4149422,-0.0001215 12.5507947,1.189026 11.6569597,3.0321135 C10.9608997,2.7183465 10.2094222,2.55486825 9.44214975,2.55486825 C6.46263225,2.55486825 4.03688475,4.98068325 4.03688475,7.96013325 L4.03688475,8.326638 L0.67504725,8.3240055 C0.3006315,8.3240055 4.725e-05,8.62458975 4.725e-05,8.9990055 C4.725e-05,9.37342125 0.3006315,9.6740055 0.67504725,9.6740055 L0.675,9.6741 Z" id="Fill-2" fill="#7A85F5"></path>
                </g>
                <path d="M81.324973,70.8844775 L79.0732405,70.8844775 L79.0732405,60.4037525 C79.0732405,60.0293367 78.7726563,59.7287525 78.3982405,59.7287525 C78.0238248,59.7287525 77.7232405,60.0293367 77.7232405,60.4037525 L77.7232405,61.8882125 L53.9848405,61.8882125 L53.9848405,60.4037525 C53.9848405,60.0293367 53.6842563,59.7287525 53.3098405,59.7287525 C52.9354248,59.7287525 52.6348405,60.0293367 52.6348405,60.4037525 L52.6348405,70.8871775 L50.9235805,70.8871775 C50.5491648,70.8871775 50.2485805,71.1877618 50.2485805,71.5621775 L50.2485805,75.823115 C50.2485805,76.1975307 50.5491648,76.498115 50.9235805,76.498115 L51.785758,76.498115 L51.785758,80.9568275 L44.337133,80.9568275 L44.337133,78.984545 C44.337133,77.6925275 43.2877105,76.643105 41.995693,76.643105 L39.211318,76.643105 L39.211318,58.584155 L42.011488,58.584155 C42.3516273,58.584155 42.6390288,58.33103 42.6812163,57.99353 L43.8493038,48.83108 L44.495299,48.83108 C44.8697147,48.83108 45.170299,48.5304958 45.170299,48.15608 C45.170299,45.2741675 42.8262265,42.930095 39.944314,42.930095 L39.2113315,42.930095 L39.2113315,41.675 C39.2113315,41.3005842 38.9107473,41 38.5363315,41 C38.1619157,41 37.8613315,41.3005842 37.8613315,41.675 L37.8613315,42.930095 L37.128349,42.930095 C34.2464365,42.930095 31.902364,45.2741675 31.902364,48.15608 C31.902364,48.5304958 32.2029482,48.83108 32.577364,48.83108 L33.2233593,48.83108 L34.3914468,57.99353 C34.4336342,58.33103 34.7210357,58.584155 35.061175,58.584155 L37.861345,58.584155 L37.861345,76.640405 L35.07697,76.640405 C33.7849525,76.640405 32.73553,77.6898275 32.73553,78.981845 L32.73553,80.95676 L28.675,80.95676 C28.3005842,80.95676 28,81.2573443 28,81.63176 C28,82.0061757 28.3005842,82.30676 28.675,82.30676 L81.325,82.30676 C81.6994158,82.30676 82,82.0061757 82,81.63176 C82,81.2573443 81.6994158,80.95676 81.325,80.95676 L80.307235,80.95676 L80.307235,76.495415 L81.325,76.495415 C81.6994158,76.495415 82,76.1948307 82,75.820415 L82,71.5594775 C82,71.187701 81.6994158,70.8844775 81.325,70.8844775 L81.324973,70.8844775 Z M37.130698,44.2800275 L39.944098,44.2800275 C41.850433,44.2800275 43.4403955,45.6643175 43.762033,47.4810125 L33.313033,47.4810125 C33.6320785,45.6643175 35.2220005,44.2800275 37.130968,44.2800275 L37.130698,44.2800275 Z M34.583653,48.8310125 L42.485878,48.8310125 L41.4153955,57.2340875 L35.6541355,57.2340875 L34.583653,48.8310125 Z M77.722903,63.2382125 L77.722903,66.502445 L53.984503,66.502445 L53.984503,63.2382125 L77.722903,63.2382125 Z M53.984503,67.852445 L77.722903,67.852445 L77.722903,70.8873125 L53.984503,70.88468 L53.984503,67.852445 Z M34.085503,80.956895 L34.085503,78.9846125 C34.085503,78.436175 34.531111,77.9931725 35.076943,77.9931725 L41.992993,77.9931725 C42.5414305,77.9931725 42.984433,78.4387805 42.984433,78.9846125 L42.9870722,80.956895 L34.085503,80.956895 Z M78.959503,80.956895 L53.135353,80.956895 L53.135353,76.49555 L78.959503,76.49555 L78.959503,80.956895 Z M80.6496355,75.14555 L51.5983105,75.14555 L51.5983105,72.2346125 L80.6496355,72.2346125 L80.6496355,75.14555 Z" id="Fill-1" fill="#7A85F5"></path>
            </g>
        </g>
    </g>
</svg>