<?xml version="1.0" encoding="UTF-8"?>
<svg width="109px" height="109px" viewBox="0 0 109 109" version="1.1" xmlns="http://www.w3.org/2000/svg" xmlns:xlink="http://www.w3.org/1999/xlink">
    <title>office</title>
    <g id="Page-1" stroke="none" stroke-width="1" fill="none" fill-rule="evenodd">
        <g id="SS_V2" transform="translate(-683.000000, -2445.000000)">
            <g id="office" transform="translate(683.000000, 2445.000000)">
                <circle id="Oval-Copy-9" fill="#FFFFFF" cx="54.5" cy="54.5" r="54.5"></circle>
                    <g transform="translate(25.000000, 26.000000)">
                        <path d="M17.0052375,44.5148625 C17.4004541,44.5148625 17.7177375,44.1947932 17.7177375,43.8023625 C17.7177375,43.4099317 17.4004541,43.0898625 17.0052375,43.0898625 L14.8899675,43.0898625 C14.4947509,43.0898625 14.1774675,43.4099317 14.1774675,43.8023625 C14.1774675,44.1947932 14.4947509,44.5148625 14.8899675,44.5148625 L17.0052375,44.5148625 Z" id="Fill-1" fill="#7A85F5"></path>
                        <path d="M19.9279125,44.5148625 L22.0431825,44.5148625 C22.4383991,44.5148625 22.7556825,44.1947932 22.7556825,43.8023625 C22.7556825,43.4099317 22.4383991,43.0898625 22.0431825,43.0898625 L19.9279125,43.0898625 C19.5326959,43.0898625 19.2154125,43.4099317 19.2154125,43.8023625 C19.2154125,44.1947932 19.5354818,44.5148625 19.9279125,44.5148625 Z" id="Fill-2" fill="#7A85F5"></path>
                        <path d="M24.9652875,44.5148625 L27.0805575,44.5148625 C27.4757741,44.5148625 27.7930575,44.1947932 27.7930575,43.8023625 C27.7930575,43.4099317 27.4757741,43.0898625 27.0805575,43.0898625 L24.9652875,43.0898625 C24.5700709,43.0898625 24.2527875,43.4099317 24.2527875,43.8023625 C24.2527875,44.1947932 24.5728568,44.5148625 24.9652875,44.5148625 Z" id="Fill-3" fill="#7A85F5"></path>
                        <path d="M14.889825,39.2851125 L17.005095,39.2851125 C17.4003116,39.2851125 17.717595,38.9650432 17.717595,38.5726125 C17.717595,38.1801817 17.4003116,37.8601125 17.005095,37.8601125 L14.889825,37.8601125 C14.4946084,37.8601125 14.177325,38.1801817 14.177325,38.5726125 C14.177325,38.9678291 14.4946084,39.2851125 14.889825,39.2851125 Z" id="Fill-4" fill="#7A85F5"></path>
                        <path d="M19.9279125,39.2851125 L22.0431825,39.2851125 C22.4383991,39.2851125 22.7556825,38.9650432 22.7556825,38.5726125 C22.7556825,38.1801817 22.4383991,37.8601125 22.0431825,37.8601125 L19.9279125,37.8601125 C19.5326959,37.8601125 19.2154125,38.1801817 19.2154125,38.5726125 C19.2154125,38.9678291 19.5354818,39.2851125 19.9279125,39.2851125 Z" id="Fill-5" fill="#7A85F5"></path>
                        <path d="M24.9652875,39.2851125 L27.0805575,39.2851125 C27.4757741,39.2851125 27.7930575,38.9650432 27.7930575,38.5726125 C27.7930575,38.1801817 27.4757741,37.8601125 27.0805575,37.8601125 L24.9652875,37.8601125 C24.5700709,37.8601125 24.2527875,38.1801817 24.2527875,38.5726125 C24.2527875,38.9678291 24.5728568,39.2851125 24.9652875,39.2851125 Z" id="Fill-6" fill="#7A85F5"></path>
                        <path d="M14.889825,34.0582125 L17.005095,34.0582125 C17.4003116,34.0582125 17.717595,33.7381432 17.717595,33.3457125 C17.717595,32.9532817 17.4003116,32.6332125 17.005095,32.6332125 L14.889825,32.6332125 C14.4946084,32.6332125 14.177325,32.9532817 14.177325,33.3457125 C14.177325,33.7381432 14.4946084,34.0582125 14.889825,34.0582125 Z" id="Fill-7" fill="#7A85F5"></path>
                        <path d="M19.9279125,34.0582125 L22.0431825,34.0582125 C22.4383991,34.0582125 22.7556825,33.7381432 22.7556825,33.3457125 C22.7556825,32.9532817 22.4383991,32.6332125 22.0431825,32.6332125 L19.9279125,32.6332125 C19.5326959,32.6332125 19.2154125,32.9532817 19.2154125,33.3457125 C19.2154125,33.7381432 19.5354818,34.0582125 19.9279125,34.0582125 Z" id="Fill-8" fill="#7A85F5"></path>
                        <path d="M24.9652875,34.0582125 L27.0805575,34.0582125 C27.4757741,34.0582125 27.7930575,33.7381432 27.7930575,33.3457125 C27.7930575,32.9532817 27.4757741,32.6332125 27.0805575,32.6332125 L24.9652875,32.6332125 C24.5700709,32.6332125 24.2527875,32.9532817 24.2527875,33.3457125 C24.2527875,33.7381432 24.5728568,34.0582125 24.9652875,34.0582125 Z" id="Fill-9" fill="#7A85F5"></path>
                        <path d="M14.889825,28.8284625 L17.005095,28.8284625 C17.4003116,28.8284625 17.717595,28.5083932 17.717595,28.1159625 C17.717595,27.7235317 17.4003116,27.4034625 17.005095,27.4034625 L14.889825,27.4034625 C14.4946084,27.4034625 14.177325,27.7235317 14.177325,28.1159625 C14.177325,28.5111791 14.4946084,28.8284625 14.889825,28.8284625 Z" id="Fill-10" fill="#7A85F5"></path>
                        <path d="M19.9279125,28.8284625 L22.0431825,28.8284625 C22.4383991,28.8284625 22.7556825,28.5083932 22.7556825,28.1159625 C22.7556825,27.7235317 22.4383991,27.4034625 22.0431825,27.4034625 L19.9279125,27.4034625 C19.5326959,27.4034625 19.2154125,27.7235317 19.2154125,28.1159625 C19.2154125,28.5111791 19.5354818,28.8284625 19.9279125,28.8284625 Z" id="Fill-11" fill="#7A85F5"></path>
                        <path d="M24.9652875,28.8284625 L27.0805575,28.8284625 C27.4757741,28.8284625 27.7930575,28.5083932 27.7930575,28.1159625 C27.7930575,27.7235317 27.4757741,27.4034625 27.0805575,27.4034625 L24.9652875,27.4034625 C24.5700709,27.4034625 24.2527875,27.7235317 24.2527875,28.1159625 C24.2527875,28.5111791 24.5728568,28.8284625 24.9652875,28.8284625 Z" id="Fill-12" fill="#7A85F5"></path>
                        <path d="M14.889825,23.6015625 L17.005095,23.6015625 C17.4003116,23.6015625 17.717595,23.2814932 17.717595,22.8890625 C17.717595,22.4966317 17.4003116,22.1765625 17.005095,22.1765625 L14.889825,22.1765625 C14.4946084,22.1765625 14.177325,22.4966317 14.177325,22.8890625 C14.177325,23.2814932 14.4946084,23.6015625 14.889825,23.6015625 Z" id="Fill-13" fill="#7A85F5"></path>
                        <path d="M19.9279125,23.6015625 L22.0431825,23.6015625 C22.4383991,23.6015625 22.7556825,23.2814932 22.7556825,22.8890625 C22.7556825,22.4966317 22.4383991,22.1765625 22.0431825,22.1765625 L19.9279125,22.1765625 C19.5326959,22.1765625 19.2154125,22.4966317 19.2154125,22.8890625 C19.2154125,23.2814932 19.5354818,23.6015625 19.9279125,23.6015625 Z" id="Fill-14" fill="#7A85F5"></path>
                        <path d="M24.9652875,23.6015625 L27.0805575,23.6015625 C27.4757741,23.6015625 27.7930575,23.2814932 27.7930575,22.8890625 C27.7930575,22.4966317 27.4757741,22.1765625 27.0805575,22.1765625 L24.9652875,22.1765625 C24.5700709,22.1765625 24.2527875,22.4966317 24.2527875,22.8890625 C24.2527875,23.2814932 24.5728568,23.6015625 24.9652875,23.6015625 Z" id="Fill-15" fill="#7A85F5"></path>
                        <path d="M14.889825,18.3718125 L17.005095,18.3718125 C17.4003116,18.3718125 17.717595,18.0517433 17.717595,17.6593125 C17.717595,17.2668817 17.4003116,16.9468125 17.005095,16.9468125 L14.889825,16.9468125 C14.4946084,16.9468125 14.177325,17.2668817 14.177325,17.6593125 C14.177325,18.0517433 14.4946084,18.3718125 14.889825,18.3718125 Z" id="Fill-16" fill="#7A85F5"></path>
                        <path d="M19.9279125,18.3718125 L22.0431825,18.3718125 C22.4383991,18.3718125 22.7556825,18.0517433 22.7556825,17.6593125 C22.7556825,17.2668817 22.4383991,16.9468125 22.0431825,16.9468125 L19.9279125,16.9468125 C19.5326959,16.9468125 19.2154125,17.2668817 19.2154125,17.6593125 C19.2154125,18.0517433 19.5354818,18.3718125 19.9279125,18.3718125 Z" id="Fill-17" fill="#7A85F5"></path>
                        <path d="M24.9652875,18.3718125 L27.0805575,18.3718125 C27.4757741,18.3718125 27.7930575,18.0517433 27.7930575,17.6593125 C27.7930575,17.2668817 27.4757741,16.9468125 27.0805575,16.9468125 L24.9652875,16.9468125 C24.5700709,16.9468125 24.2527875,17.2668817 24.2527875,17.6593125 C24.2527875,18.0517433 24.5728568,18.3718125 24.9652875,18.3718125 Z" id="Fill-18" fill="#7A85F5"></path>
                        <path d="M14.889825,13.1420625 L17.005095,13.1420625 C17.4003116,13.1420625 17.717595,12.8219932 17.717595,12.4295625 C17.717595,12.0371317 17.4003116,11.7170625 17.005095,11.7170625 L14.889825,11.7170625 C14.4946084,11.7170625 14.177325,12.0371317 14.177325,12.4295625 C14.177325,12.8247791 14.4946084,13.1420625 14.889825,13.1420625 Z" id="Fill-19" fill="#7A85F5"></path>
                        <path d="M19.9279125,13.1420625 L22.0431825,13.1420625 C22.4383991,13.1420625 22.7556825,12.8219932 22.7556825,12.4295625 C22.7556825,12.0371317 22.4383991,11.7170625 22.0431825,11.7170625 L19.9279125,11.7170625 C19.5326959,11.7170625 19.2154125,12.0371317 19.2154125,12.4295625 C19.2154125,12.8247791 19.5354818,13.1420625 19.9279125,13.1420625 Z" id="Fill-20" fill="#7A85F5"></path>
                        <path d="M24.9652875,13.1420625 L27.0805575,13.1420625 C27.4757741,13.1420625 27.7930575,12.8219932 27.7930575,12.4295625 C27.7930575,12.0371317 27.4757741,11.7170625 27.0805575,11.7170625 L24.9652875,11.7170625 C24.5700709,11.7170625 24.2527875,12.0371317 24.2527875,12.4295625 C24.2527875,12.8247791 24.5728568,13.1420625 24.9652875,13.1420625 Z" id="Fill-21" fill="#7A85F5"></path>
                        <path d="M14.889825,7.9151625 L17.005095,7.9151625 C17.4003116,7.9151625 17.717595,7.59509325 17.717595,7.2026625 C17.717595,6.81023175 17.4003116,6.4901625 17.005095,6.4901625 L14.889825,6.4901625 C14.4946084,6.4901625 14.177325,6.81023175 14.177325,7.2026625 C14.177325,7.59509325 14.4946084,7.9151625 14.889825,7.9151625 Z" id="Fill-22" fill="#7A85F5"></path>
                        <path d="M19.9279125,7.9151625 L22.0431825,7.9151625 C22.4383991,7.9151625 22.7556825,7.59509325 22.7556825,7.2026625 C22.7556825,6.81023175 22.4383991,6.4901625 22.0431825,6.4901625 L19.9279125,6.4901625 C19.5326959,6.4901625 19.2154125,6.81023175 19.2154125,7.2026625 C19.2154125,7.59509325 19.5354818,7.9151625 19.9279125,7.9151625 Z" id="Fill-23" fill="#7A85F5"></path>
                        <path d="M24.9652875,7.9151625 L27.0805575,7.9151625 C27.4757741,7.9151625 27.7930575,7.59509325 27.7930575,7.2026625 C27.7930575,6.81023175 27.4757741,6.4901625 27.0805575,6.4901625 L24.9652875,6.4901625 C24.5700709,6.4901625 24.2527875,6.81023175 24.2527875,7.2026625 C24.2527875,7.59509325 24.5728568,7.9151625 24.9652875,7.9151625 Z" id="Fill-24" fill="#7A85F5"></path>
                        <path d="M36.264825,48.3189 L33.92697,48.3189 C33.5317534,48.3189 33.21447,48.6389692 33.21447,49.0314 C33.21447,49.4238307 33.5317534,49.7439 33.92697,49.7439 L36.264825,49.7439 C36.6600416,49.7439 36.977325,49.4238307 36.977325,49.0314 C36.977325,48.6361834 36.6572557,48.3189 36.264825,48.3189 Z" id="Fill-25" fill="#7A85F5"></path>
                        <path d="M39.493875,49.7439 L41.83173,49.7439 C42.2269466,49.7439 42.54423,49.4238307 42.54423,49.0314 C42.54423,48.6389692 42.2269466,48.3189 41.83173,48.3189 L39.493875,48.3189 C39.0986584,48.3189 38.781375,48.6389692 38.781375,49.0314 C38.781375,49.4238307 39.0986584,49.7439 39.493875,49.7439 Z" id="Fill-26" fill="#7A85F5"></path>
                        <path d="M33.9271125,44.5148625 L36.2649675,44.5148625 C36.6601841,44.5148625 36.9774675,44.1947932 36.9774675,43.8023625 C36.9774675,43.4099317 36.6601841,43.0898625 36.2649675,43.0898625 L33.9271125,43.0898625 C33.5318959,43.0898625 33.2146125,43.4099317 33.2146125,43.8023625 C33.2146125,44.1947932 33.5318959,44.5148625 33.9271125,44.5148625 Z" id="Fill-27" fill="#7A85F5"></path>
                        <path d="M39.493875,44.5148625 L41.83173,44.5148625 C42.2269466,44.5148625 42.54423,44.1947932 42.54423,43.8023625 C42.54423,43.4099317 42.2269466,43.0898625 41.83173,43.0898625 L39.493875,43.0898625 C39.0986584,43.0898625 38.781375,43.4099317 38.781375,43.8023625 C38.781375,44.1947932 39.0986584,44.5148625 39.493875,44.5148625 Z" id="Fill-28" fill="#7A85F5"></path>
                        <path d="M33.9271125,39.2851125 L36.2649675,39.2851125 C36.6601841,39.2851125 36.9774675,38.9650432 36.9774675,38.5726125 C36.9774675,38.1801817 36.6601841,37.8601125 36.2649675,37.8601125 L33.9271125,37.8601125 C33.5318959,37.8601125 33.2146125,38.1801817 33.2146125,38.5726125 C33.2146125,38.9678291 33.5318959,39.2851125 33.9271125,39.2851125 Z" id="Fill-29" fill="#7A85F5"></path>
                        <path d="M39.493875,39.2851125 L41.83173,39.2851125 C42.2269466,39.2851125 42.54423,38.9650432 42.54423,38.5726125 C42.54423,38.1801817 42.2269466,37.8601125 41.83173,37.8601125 L39.493875,37.8601125 C39.0986584,37.8601125 38.781375,38.1801817 38.781375,38.5726125 C38.781375,38.9678291 39.0986584,39.2851125 39.493875,39.2851125 Z" id="Fill-30" fill="#7A85F5"></path>
                        <path d="M33.9271125,34.0582125 L36.2649675,34.0582125 C36.6601841,34.0582125 36.9774675,33.7381432 36.9774675,33.3457125 C36.9774675,32.9532817 36.6601841,32.6332125 36.2649675,32.6332125 L33.9271125,32.6332125 C33.5318959,32.6332125 33.2146125,32.9532817 33.2146125,33.3457125 C33.2146125,33.7381432 33.5318959,34.0582125 33.9271125,34.0582125 Z" id="Fill-31" fill="#7A85F5"></path>
                        <path d="M39.493875,34.0582125 L41.83173,34.0582125 C42.2269466,34.0582125 42.54423,33.7381432 42.54423,33.3457125 C42.54423,32.9532817 42.2269466,32.6332125 41.83173,32.6332125 L39.493875,32.6332125 C39.0986584,32.6332125 38.781375,32.9532817 38.781375,33.3457125 C38.781375,33.7381432 39.0986584,34.0582125 39.493875,34.0582125 Z" id="Fill-32" fill="#7A85F5"></path>
                        <path d="M33.9271125,28.8284625 L36.2649675,28.8284625 C36.6601841,28.8284625 36.9774675,28.5083932 36.9774675,28.1159625 C36.9774675,27.7235317 36.6601841,27.4034625 36.2649675,27.4034625 L33.9271125,27.4034625 C33.5318959,27.4034625 33.2146125,27.7235317 33.2146125,28.1159625 C33.2146125,28.5111791 33.5318959,28.8284625 33.9271125,28.8284625 Z" id="Fill-33" fill="#7A85F5"></path>
                        <path d="M39.493875,28.8284625 L41.83173,28.8284625 C42.2269466,28.8284625 42.54423,28.5083932 42.54423,28.1159625 C42.54423,27.7235317 42.2269466,27.4034625 41.83173,27.4034625 L39.493875,27.4034625 C39.0986584,27.4034625 38.781375,27.7235317 38.781375,28.1159625 C38.781375,28.5111791 39.0986584,28.8284625 39.493875,28.8284625 Z" id="Fill-34" fill="#7A85F5"></path>
                        <path d="M33.9271125,23.6015625 L36.2649675,23.6015625 C36.6601841,23.6015625 36.9774675,23.2814932 36.9774675,22.8890625 C36.9774675,22.4966317 36.6601841,22.1765625 36.2649675,22.1765625 L33.9271125,22.1765625 C33.5318959,22.1765625 33.2146125,22.4966317 33.2146125,22.8890625 C33.2146125,23.2814932 33.5318959,23.6015625 33.9271125,23.6015625 Z" id="Fill-35" fill="#7A85F5"></path>
                        <path d="M39.493875,23.6015625 L41.83173,23.6015625 C42.2269466,23.6015625 42.54423,23.2814932 42.54423,22.8890625 C42.54423,22.4966317 42.2269466,22.1765625 41.83173,22.1765625 L39.493875,22.1765625 C39.0986584,22.1765625 38.781375,22.4966317 38.781375,22.8890625 C38.781375,23.2814932 39.0986584,23.6015625 39.493875,23.6015625 Z" id="Fill-36" fill="#7A85F5"></path>
                        <path d="M33.9271125,18.3718125 L36.2649675,18.3718125 C36.6601841,18.3718125 36.9774675,18.0517433 36.9774675,17.6593125 C36.9774675,17.2668817 36.6601841,16.9468125 36.2649675,16.9468125 L33.9271125,16.9468125 C33.5318959,16.9468125 33.2146125,17.2668817 33.2146125,17.6593125 C33.2146125,18.0517433 33.5318959,18.3718125 33.9271125,18.3718125 Z" id="Fill-37" fill="#7A85F5"></path>
                        <path d="M39.493875,18.3718125 L41.83173,18.3718125 C42.2269466,18.3718125 42.54423,18.0517433 42.54423,17.6593125 C42.54423,17.2668817 42.2269466,16.9468125 41.83173,16.9468125 L39.493875,16.9468125 C39.0986584,16.9468125 38.781375,17.2668817 38.781375,17.6593125 C38.781375,18.0517433 39.0986584,18.3718125 39.493875,18.3718125 Z" id="Fill-38" fill="#7A85F5"></path>
                        <path d="M33.9271125,13.1420625 L36.2649675,13.1420625 C36.6601841,13.1420625 36.9774675,12.8219932 36.9774675,12.4295625 C36.9774675,12.0371317 36.6601841,11.7170625 36.2649675,11.7170625 L33.9271125,11.7170625 C33.5318959,11.7170625 33.2146125,12.0371317 33.2146125,12.4295625 C33.2146125,12.8247791 33.5318959,13.1420625 33.9271125,13.1420625 Z" id="Fill-39" fill="#7A85F5"></path>
                        <path d="M39.493875,13.1420625 L41.83173,13.1420625 C42.2269466,13.1420625 42.54423,12.8219932 42.54423,12.4295625 C42.54423,12.0371317 42.2269466,11.7170625 41.83173,11.7170625 L39.493875,11.7170625 C39.0986584,11.7170625 38.781375,12.0371317 38.781375,12.4295625 C38.781375,12.8247791 39.0986584,13.1420625 39.493875,13.1420625 Z" id="Fill-40" fill="#7A85F5"></path>
                        <path d="M0.7125,55.575 C0.317283375,55.575 0,55.8950692 0,56.2875 C0,56.6799308 0.317283375,57 0.7125,57 L56.229075,57 C56.6242916,57 56.941575,56.6799308 56.941575,56.2875 C56.941575,55.8950692 56.6242916,55.575 56.229075,55.575 L53.117445,55.575 L53.117445,49.5883612 C55.31337,49.2432405 57,47.3423475 57,45.0517313 C57,42.5162287 54.9404475,40.4538975 52.404945,40.4538975 C49.8722212,40.4538975 47.80989,42.5162287 47.80989,45.0517313 C47.80989,47.3451262 49.49652,49.246005 51.692445,49.5883612 L51.692445,55.575 L46.0731713,55.575 L46.0731713,7.2026625 C46.0731713,6.81023175 45.7558879,6.4901625 45.3606713,6.4901625 L31.0465462,6.4901625 L31.0465462,0.712215 C31.0465462,0.31978425 30.7292629,-0.000285 30.3340463,-0.000285 L11.6394713,-0.000285 C11.2442546,-0.000285 10.9269713,0.31978425 10.9269713,0.712215 L10.9269713,55.574715 L5.3076975,55.574715 L5.3076975,49.5880763 C7.5036225,49.2429555 9.1902525,47.3420625 9.1902525,45.0514462 C9.1902525,42.5159437 7.12792125,40.4536125 4.5951975,40.4536125 C2.059695,40.4536125 0,42.5159437 0,45.0514462 C0,47.3448412 1.6867725,49.24572 3.8826975,49.5880763 L3.8826975,55.574715 L0.7125,55.575 Z M49.235175,45.051375 C49.235175,43.3007625 50.6573962,41.8785372 52.40523,41.8785372 C54.1530637,41.8757554 55.575285,43.3007625 55.575285,45.051375 C55.575285,46.8019875 54.1530637,48.2242088 52.40523,48.2242088 C50.6573962,48.2242088 49.235175,46.7992088 49.235175,45.051375 Z M1.42499288,45.051375 C1.42499288,43.3007625 2.84722125,41.8785413 4.595055,41.8785413 C6.34288875,41.8785413 7.76511,43.3035413 7.76511,45.051375 C7.76511,46.7992088 6.34288875,48.2242088 4.59783375,48.2242088 L4.59504787,48.2242088 L4.59226912,48.2242088 C2.84443537,48.2242088 1.42499288,46.7992088 1.42499288,45.051375 L1.42499288,45.051375 Z M24.2527875,55.575 L17.7178087,55.575 L17.7178087,48.6142312 L24.2527875,48.6142312 L24.2527875,55.575 Z M44.6481,7.9151625 L44.6481,55.575 L31.046475,55.575 L31.046475,7.9151625 L44.6481,7.9151625 Z M12.3519,1.424715 L29.621475,1.424715 L29.621475,55.574715 L25.680495,55.574715 L25.6777162,47.90109 C25.6777162,47.5086593 25.3604329,47.18859 24.9652162,47.18859 L17.0051662,47.18859 C16.6099496,47.18859 16.2926662,47.5086593 16.2926662,47.90109 L16.2926662,55.574715 L12.3516863,55.574715 L12.3519,1.424715 Z" id="Fill-41" fill="#7A85F5"></path>
                    </g>
            </g>
        </g>
    </g>
</svg>