<?xml version="1.0" encoding="UTF-8"?>
<svg width="109px" height="109px" viewBox="0 0 109 109" version="1.1" xmlns="http://www.w3.org/2000/svg" xmlns:xlink="http://www.w3.org/1999/xlink">
    <title>universities</title>
    <g id="Page-1" stroke="none" stroke-width="1" fill="none" fill-rule="evenodd">
        <g id="SS_V2" transform="translate(-683.000000, -2312.000000)">
            <g id="universities" transform="translate(683.000000, 2312.000000)">
                <circle id="Oval-Copy-8" fill="#FFFFFF" cx="54.5" cy="54.5" r="54.5"></circle>
                <path d="M54,28 C53.833596,28.0117624 53.723436,28.0494044 53.6625,28.0941051 L28.4625,44.9577415 C28.242186,45.0989022 28.14375,45.3859212 28.21875,45.6352983 C28.29375,45.8846753 28.539846,46.0752405 28.8,46.0681818 L33,46.0681818 L33,70.1590909 L28.8,70.1590909 C28.469532,70.1590909 28.2,70.427289 28.2,70.7613636 L28.2,74.9772727 L27.6,74.9772727 C27.269532,74.9772727 27,75.2454708 27,75.5795455 L27,80.3977273 C27,80.729447 27.269532,81 27.6,81 L80.4,81 C80.730468,81 81,80.729447 81,80.3977273 L81,75.5795455 C81,75.2454708 80.730468,74.9772727 80.4,74.9772727 L79.8,74.9772727 L79.8,70.7613636 C79.8,70.427289 79.530468,70.1590909 79.2,70.1590909 L75,70.1590909 L75,46.0681818 L79.2,46.0681818 C79.460154,46.0752405 79.70625,45.8846753 79.78125,45.6352983 C79.85625,45.3859212 79.757814,45.0989022 79.5375,44.9577415 L54.3375,28.0941051 C54.203904,28 54.107814,28.0023549 54,28 Z M54,29.3174716 L77.2314,44.8633352 L30.7686,44.8633352 L54,29.3174716 Z M54,35.2272727 C52.35,35.2272727 51,36.5823864 51,38.2386364 C51,39.8948864 52.35,41.25 54,41.25 C55.65,41.25 57,39.8948864 57,38.2386364 C57,36.5823864 55.65,35.2272727 54,35.2272727 Z M54,36.4318182 C55.0008,36.4318182 55.8,37.2340455 55.8,38.2386364 C55.8,39.2432273 55.0008,40.0454545 54,40.0454545 C52.9992,40.0454545 52.2,39.2432273 52.2,38.2386364 C52.2,37.2340455 52.9992,36.4318182 54,36.4318182 Z M34.2,46.0681818 L37.8,46.0681818 L37.8,70.1590909 L34.2,70.1590909 L34.2,46.0681818 Z M39,46.0681818 L45,46.0681818 L45,70.1590909 L39,70.1590909 L39,46.0681818 Z M46.2,46.0681818 L49.8,46.0681818 L49.8,70.1590909 L46.2,70.1590909 L46.2,46.0681818 Z M51,46.0681818 L57,46.0681818 L57,70.1590909 L51,70.1590909 L51,46.0681818 Z M58.2,46.0681818 L61.8,46.0681818 L61.8,70.1590909 L58.2,70.1590909 L58.2,46.0681818 Z M63,46.0681818 L69,46.0681818 L69,70.1590909 L63,70.1590909 L63,46.0681818 Z M70.2,46.0681818 L73.8,46.0681818 L73.8,70.1590909 L70.2,70.1590909 L70.2,46.0681818 Z M29.4,71.3636364 L78.6,71.3636364 L78.6,74.9772727 L29.4,74.9772727 L29.4,71.3636364 Z M28.2,76.1818182 L79.8,76.1818182 L79.8,79.7954545 L28.2,79.7954545 L28.2,76.1818182 Z" id="Fill-1" fill="#7A85F5"></path>
            </g>
        </g>
    </g>
</svg>