<?xml version="1.0" encoding="UTF-8"?>
<svg width="109px" height="109px" viewBox="0 0 109 109" version="1.1" xmlns="http://www.w3.org/2000/svg" xmlns:xlink="http://www.w3.org/1999/xlink">
    <title>hospitals</title>
    <g id="Page-1" stroke="none" stroke-width="1" fill="none" fill-rule="evenodd">
        <g id="SS_V2" transform="translate(-1035.000000, -2445.000000)">
            <g id="hospitals" transform="translate(1035.000000, 2445.000000)">
                <circle id="Oval-Copy-13" fill="#FFFFFF" cx="54.5" cy="54.5" r="54.5"></circle>
                    <g transform="translate(26.000000, 30.000000)">
                        <path d="M43.4600444,15.7986316 L43.4600444,0.236618421 L14.5457556,0.236618421 L14.5457556,15.7960526 L0.506535267,15.7960526 L0.506535267,48.7633816 L57.4973333,48.7633816 L57.4973333,15.7986316 L43.4600444,15.7986316 Z M14.5457556,47.3301316 L1.93913527,47.3301316 L1.93913527,17.2286579 L14.5457556,17.2286579 L14.5457556,47.3301316 Z M36.4041576,47.3301316 L29.7153333,47.3301316 L29.7153333,29.7333289 L28.2829267,29.7333289 L28.2829267,47.3301316 L21.5942378,47.3301316 L21.5967576,26.5928158 L36.4041576,26.5928158 L36.4041576,47.3301316 Z M42.0278311,47.3301316 L37.8364289,47.3301316 L37.8364289,25.1595658 L20.1644733,25.1595658 L20.1644733,47.3301316 L15.9780978,47.3301316 L15.9780978,1.66986842 L42.0278311,1.66986842 L42.0253178,47.3301316 L42.0278311,47.3301316 Z M56.0644756,47.3301316 L43.4578533,47.3301316 L43.4578533,17.2286579 L56.0644756,17.2286579 L56.0644756,47.3301316 Z" id="Fill-1" fill="#7A85F5"></path>
                        <path d="M53.9496667,21.3040395 L45.5693111,21.3040395 L45.5693111,30.4489868 L53.9496667,30.4489868 L53.9496667,21.3040395 Z M52.51726,29.0157368 L47.0017178,29.0157368 L47.0017178,22.7370961 L52.51726,22.7370961 L52.51726,29.0157368 Z" id="Fill-2" fill="#7A85F5"></path>
                        <path d="M53.9496667,34.1104474 L45.5693111,34.1104474 L45.5693111,43.2553947 L53.9496667,43.2553947 L53.9496667,34.1104474 Z M52.51726,41.8221447 L47.0017178,41.8221447 L47.0017178,35.5435039 L52.51726,35.5435039 L52.51726,41.8221447 Z" id="Fill-3" fill="#7A85F5"></path>
                        <path d="M12.4332667,21.3040395 L4.05033333,21.3040395 L4.05033333,30.4489868 L12.4332667,30.4489868 L12.4332667,21.3040395 Z M11.00086,29.0157368 L5.48280444,29.0157368 L5.48280444,22.7370961 L11.00086,22.7370961 L11.00086,29.0157368 Z" id="Fill-4" fill="#7A85F5"></path>
                        <path d="M12.4332667,34.1104474 L4.05033333,34.1104474 L4.05033333,43.2553947 L12.4332667,43.2553947 L12.4332667,34.1104474 Z M11.00086,41.8221447 L5.48280444,41.8221447 L5.48280444,35.5435039 L11.00086,35.5435039 L11.00086,41.8221447 Z" id="Fill-5" fill="#7A85F5"></path>
                        <path d="M26.0117111,20.6715526 L31.9853889,20.6715526 L31.9853889,15.6118513 L37.0453089,15.6118513 L37.0453089,9.63546316 L31.9853889,9.63546316 L31.9879087,4.57324737 L26.0142309,4.57324737 L26.0142309,9.63294868 L20.9568242,9.63294868 L20.9568242,15.6093368 L26.0142309,15.6093368 L26.0117111,20.6715526 Z M22.3867111,14.1790526 L22.3867111,11.0661987 L27.4441178,11.0661987 L27.4441178,6.00649737 L30.55556,6.00649737 L30.55556,11.0661987 L35.61548,11.0661987 L35.61548,14.1790526 L30.55556,14.1790526 L30.55556,19.2387539 L27.4441178,19.2387539 L27.4441178,14.1790526 L22.3867111,14.1790526 Z" id="Fill-6" fill="#7A85F5"></path>
                    </g>
            </g>
        </g>
    </g>
</svg>