<?xml version="1.0" encoding="UTF-8"?>
<svg width="109px" height="109px" viewBox="0 0 109 109" version="1.1" xmlns="http://www.w3.org/2000/svg" xmlns:xlink="http://www.w3.org/1999/xlink">
    <title>airports</title>
    <g id="Page-1" stroke="none" stroke-width="1" fill="none" fill-rule="evenodd">
        <g id="SS_V2" transform="translate(-683.000000, -2578.000000)">
            <g id="airports" transform="translate(683.000000, 2578.000000)">
                <circle id="Oval-Copy-10" fill="#FFFFFF" cx="54.5" cy="54.5" r="54.5"></circle>
                    <g transform="translate(22.000000, 30.000000)">
                        <path d="M32.3349091,48.5840764 L40.4612727,48.5840764 L40.4612727,44.0178344 L32.3349091,44.0178344 L32.3349091,48.5840764 Z M32.3349091,42.6570064 L40.4612727,42.6570064 L40.4612727,37.5738854 L32.3349091,37.5738854 L32.3349091,42.6570064 Z M40.4612727,31.5910828 L40.4612727,36.2130573 L32.3349091,36.2130573 L32.3349091,31.2613057 C33.1144545,31.2659236 33.8162045,31.2756369 34.4727727,31.2914013 C36.4712727,31.3378981 38.4847273,31.4386943 40.4612727,31.5910828 L40.4612727,31.5910828 Z M22.9141818,48.5840764 L30.9754773,48.5840764 L30.9754773,44.0178344 L22.9141818,44.0178344 L22.9141818,48.5840764 Z M22.9141818,42.6570064 L30.9754773,42.6570064 L30.9754773,37.5738854 L22.9141818,37.5738854 L22.9141818,42.6570064 Z M30.9754773,31.2598726 L30.9754773,36.2130573 L22.9141818,36.2130573 L22.9141818,31.581051 C25.5452273,31.3813694 28.2547045,31.2732484 30.9754773,31.2598726 L30.9754773,31.2598726 Z M9.2575,26.6328025 C8.94822727,26.6993631 8.63911364,26.7665605 8.33031818,26.836465 C8.16168182,26.8745223 7.99304545,26.913535 7.82456818,26.9530255 L7.82456818,16.0409236 L16.3138182,16.0409236 L16.3138182,25.3934713 C16.1945,25.4105096 16.0751818,25.4280255 15.9558636,25.4455414 L15.6975,25.4832803 C14.4134773,25.6692675 13.2241136,25.8624204 12.0611591,26.0737261 C11.3333182,26.2055732 10.563,26.3576433 9.63693182,26.5525478 L9.2575,26.6328025 Z M53.0051136,32.3950637 L53.0009773,32.3667197 C52.9651818,32.0993631 52.7734773,31.8998408 52.4977727,31.8452229 C45.1396591,30.4041401 37.2953636,29.7579618 29.1790227,29.9229299 C22.7915227,30.0544586 16.6216591,30.6993631 10.8410909,31.8399682 C10.5521818,31.8969745 10.3257955,32.1872611 10.3257955,32.5007962 L10.3257955,48.5840764 L6.14838636,48.5840764 L6.14838636,28.7652866 C6.61834091,28.6441083 7.10038636,28.5245223 7.61615909,28.4011146 C10.6640227,27.6740446 13.8307273,27.0904459 17.0297273,26.6660828 C17.04675,26.6636943 17.0632955,26.6603503 17.0763409,26.6568471 C20.8736818,26.1533439 24.8649545,25.8482484 28.9389545,25.7501592 C30.1354773,25.7214968 31.3921364,25.7117834 32.6752045,25.7214968 C34.0868182,25.7335987 35.4879318,25.769586 36.8405227,25.8288217 C37.2764318,25.8479299 37.7118636,25.8699045 38.1472955,25.8941083 L38.4958636,25.9143312 C38.8056136,25.9323248 39.1148864,25.9519108 39.4243182,25.9726115 C39.7132273,25.9920382 40.0021364,26.0125796 40.2913636,26.0343949 L40.6855909,26.064172 C44.5739318,26.3729299 48.4108864,26.8923567 52.0901818,27.6079618 C52.9941364,27.7826433 53.9362727,27.9824841 54.8903409,28.2017516 C55.3109773,28.2980892 55.7599318,28.4052548 56.3024318,28.5386943 L56.4499091,28.5756369 C56.6327045,28.6213376 56.8164545,28.6673567 56.9997273,28.7151274 C57.0522273,28.7283439 57.1212727,28.7414013 57.19525,28.7544586 L57.19525,48.5840764 L53.0154545,48.5840764 L53.0154545,32.5105096 C53.0154545,32.4694268 53.011,32.4318471 53.0051136,32.3950637 L53.0051136,32.3950637 Z M17.1247045,13.4116242 L16.8144773,14.6799363 L7.32534091,14.6799363 L7.01527273,13.4116242 L17.1247045,13.4116242 Z M19.9210455,11.025 C19.7737273,11.3660828 19.62625,11.7073248 19.4782955,12.0484076 L4.65547727,12.0484076 C4.50815909,11.7073248 4.36052273,11.3660828 4.21272727,11.025 L5.61988636,11.0246815 C5.63484091,11.0261146 5.64979545,11.0273885 5.66443182,11.0273885 L18.5239091,11.0273885 C18.5369545,11.0273885 18.5498409,11.0264331 18.5646364,11.025 L19.9210455,11.025 Z M19.1823864,3.93964968 L17.9731364,9.66417197 L15.4467727,9.66417197 L16.0656364,3.93964968 L19.1823864,3.93964968 Z M14.7033409,3.93964968 L14.0843182,9.66417197 L10.0785682,9.66417197 L9.43504545,3.93964968 L14.7033409,3.93964968 Z M8.07243182,3.93964968 L8.71595455,9.66417197 L6.21186364,9.66417197 L4.96363636,3.93964968 L8.07243182,3.93964968 Z M20.4357045,2.57611465 L3.70220455,2.57611465 L4.00590909,1.35828025 L20.132,1.35828025 L20.4357045,2.57611465 Z M21.5545909,31.6941083 L21.5545909,36.2130573 L11.6836364,36.2130573 L11.6836364,33.0609873 C14.8570227,32.4539809 18.1751818,31.9944268 21.5545909,31.6941083 L21.5545909,31.6941083 Z M11.6836364,42.6570064 L21.5545909,42.6570064 L21.5545909,37.5738854 L11.6836364,37.5738854 L11.6836364,42.6570064 Z M11.6836364,48.5840764 L21.5545909,48.5840764 L21.5545909,44.0178344 L11.6836364,44.0178344 L11.6836364,48.5840764 Z M51.6568182,33.0686306 L51.6568182,36.2130573 L41.8210227,36.2130573 L41.8210227,31.7046178 C45.1770455,32.0062102 48.4835909,32.4648089 51.6568182,33.0686306 L51.6568182,33.0686306 Z M41.8210227,42.6570064 L51.6568182,42.6570064 L51.6568182,37.5738854 L41.8210227,37.5738854 L41.8210227,42.6570064 Z M41.8210227,48.5840764 L51.6568182,48.5840764 L51.6568182,44.0178344 L41.8210227,44.0178344 L41.8210227,48.5840764 Z M62.2390682,48.5840764 L58.5522955,48.5840764 L58.5522955,29.1109873 C59.6439773,29.4133758 60.7164091,29.735828 61.7438182,30.0703822 C62.1466364,30.2019108 62.4594091,29.9568471 62.5601136,29.6474522 C62.6660682,29.3224522 62.5500909,28.9023885 62.1261136,28.763535 C60.788,28.3272293 59.3840227,27.9136943 57.9531591,27.5347134 C57.7865909,27.4761146 57.61,27.4375796 57.4714318,27.4106688 C52.1808636,26.0441083 46.3616364,25.1192675 40.1755455,24.6622611 C37.7016818,24.4797771 35.1368182,24.3767516 32.5501591,24.3563694 C32.5296364,24.3563694 32.5105455,24.358121 32.4855682,24.3613057 C27.4800909,24.3229299 22.4960909,24.6095541 17.6759545,25.2154459 L17.6759545,15.9550955 C17.8388636,15.866242 17.9612045,15.7151274 18.0067045,15.5356688 L18.5264545,13.4092357 L19.9205682,13.4092357 C20.1399545,13.4092357 20.4162955,13.2845541 20.5201818,13.0455414 C20.8631818,12.2509554 21.2058636,11.4563694 21.5514091,10.6611465 C21.6885455,10.3428344 21.6215682,10.0121019 21.3894545,9.82595541 C21.2699773,9.72006369 21.1175682,9.66417197 20.9490909,9.66417197 L19.3632727,9.66417197 L20.5723636,3.93964968 L21.308,3.93964968 C21.5561818,3.9383758 21.7644318,3.81910828 21.8808864,3.61178344 C21.9812727,3.4589172 22.0108636,3.27165605 21.96425,3.08280255 L21.3213636,0.503025478 C21.2473864,0.211464968 20.9707273,0 20.664,0 L3.47390909,0 C3.16670455,0 2.89036364,0.211464968 2.81638636,0.503821656 L2.17365909,3.08152866 C2.12068182,3.29012739 2.16618182,3.50764331 2.29854545,3.67802548 C2.42772727,3.84426752 2.62165909,3.93964968 2.83102273,3.93964968 L3.57143182,3.93964968 L4.8195,9.66417197 L3.18181818,9.66417197 C2.95113636,9.66417197 2.74988636,9.76942675 2.62977273,9.95286624 C2.49788636,10.1544586 2.47975,10.4262739 2.58204545,10.6611465 C2.92488636,11.4562102 3.26788636,12.2511146 3.61343182,13.0464968 C3.71731818,13.2847134 3.99365909,13.4092357 4.21272727,13.4092357 L5.61336364,13.4092357 L6.13295455,15.5345541 C6.17606818,15.7149682 6.29936364,15.8671975 6.46497727,15.9562102 L6.46497727,27.2796178 C6.09938636,27.3702229 5.69195455,27.472293 5.28484091,27.5796178 C5.27656818,27.5818471 5.26829545,27.5845541 5.26002273,27.5875796 C3.91284091,27.9468153 2.57043182,28.3433121 1.26970455,28.7664013 C0.846045455,28.9052548 0.730068182,29.3253185 0.836022727,29.6501592 C0.937045455,29.9600318 1.25061364,30.2042994 1.65231818,30.0735669 C2.65761364,29.7463376 3.71047727,29.4294586 4.78640909,29.1300955 L4.78640909,48.5840764 L0.665954545,48.5840764 C0.233386364,48.5840764 0,48.9345541 0,49.2644904 C0,49.5942675 0.233386364,49.9449045 0.665954545,49.9449045 L52.3356591,49.9476115 L57.8725,49.9476115 C57.8857045,49.9476115 57.8985909,49.9464968 57.9119545,49.9449045 L62.2390682,49.9449045 C62.6717955,49.9449045 62.9050227,49.5942675 62.9050227,49.2644904 C62.9050227,48.9345541 62.6717955,48.5840764 62.2390682,48.5840764 L62.2390682,48.5840764 Z" id="Fill-1" fill="#7A85F5"></path>
                        <path d="M45.2658659,12.3635191 C45.3172523,12.181035 45.2854341,11.9869268 45.1783659,11.8305573 L42.439775,7.83007962 C42.4050932,7.7791242 42.396025,7.71813694 42.4143205,7.65778662 C42.4313432,7.60221338 42.4755705,7.55396497 42.5298205,7.53214968 L43.1735023,7.27562102 C43.5071159,7.14425159 43.8894114,7.17673567 44.1972523,7.36383758 L49.483525,10.5794427 C49.651525,10.6815127 49.8607295,10.7001433 50.0427295,10.6291242 C50.3006159,10.5297611 51.2845932,10.1530096 53.1222523,9.48007962 C54.6999568,8.89871019 56.1109341,9.08374204 56.8095023,9.52482484 C56.8252523,9.53485669 56.8417977,9.54425159 56.8591386,9.55332803 C57.0204568,9.63565287 57.1343659,9.7902707 57.1652295,9.96765924 C57.2053205,10.5639968 56.5835932,11.2928185 55.8013432,11.5636783 C55.3840477,11.7085828 54.0004341,12.2216401 51.4475023,13.1788057 C51.4245932,13.1875637 51.4020023,13.1974363 51.3802068,13.2090605 L45.9184568,15.261449 C44.3321614,15.8598567 42.9404341,16.3854936 42.102025,16.7023726 C41.5935705,16.8960032 41.0448659,16.9319904 40.514775,16.8068312 C39.9846841,16.681035 39.5090023,16.4023726 39.1391159,16.0004618 L37.0604341,13.7538057 C37.0157295,13.7057166 36.9979114,13.6382006 37.0128659,13.5737102 L37.0128659,13.573551 C37.0275023,13.5096975 37.0726841,13.4576274 37.1329795,13.4345382 L37.8404568,13.1606529 C37.8641614,13.1514172 37.8883432,13.1469586 37.9123659,13.1469586 C37.9472068,13.1469586 37.9817295,13.1563535 38.0135477,13.1754618 L40.3044568,14.5391561 C40.4821614,14.6445701 40.7007523,14.6574682 40.8894341,14.5730732 L44.9131614,12.7719586 C45.0859341,12.6947293 45.2146386,12.5458439 45.2658659,12.3635191 L45.2658659,12.3635191 Z M38.2042977,16.8649522 C38.7460023,17.453328 39.4434568,17.8619268 40.2220477,18.0466401 C40.5236841,18.1179777 40.8326386,18.153965 41.1398432,18.153965 C41.6231614,18.153965 42.0988432,18.0662261 42.5530477,17.8936146 C43.390025,17.5772134 44.7814341,17.0515764 46.3666159,16.4538057 L51.8918432,14.3773726 C51.9141159,14.3689331 51.9360705,14.3590605 51.9573886,14.3480732 C54.458775,13.4103344 55.8129568,12.9079459 56.2178432,12.7673408 C57.5922295,12.2915446 58.5435932,11.0273726 58.4300023,9.82386943 L58.4261841,9.79297771 C58.3399568,9.2152707 57.9808886,8.70746815 57.4651159,8.43278662 C56.4986386,7.83644904 54.6480932,7.56017516 52.6834795,8.28421975 C51.256275,8.80683121 50.3438886,9.15078025 49.8777523,9.32848726 L44.8566841,6.27355096 L44.8369568,6.26224522 C44.1964568,5.88199045 43.3998886,5.81797771 42.7046614,6.09106688 L42.0576386,6.3491879 C41.6403432,6.51638535 41.3264568,6.85842357 41.1967977,7.28676752 C41.0655477,7.71670382 41.1355477,8.17657643 41.3891386,8.54902866 L43.6973886,11.9208439 L40.6711614,13.2754618 L38.6647068,12.081035 C38.2736614,11.8474363 37.805775,11.8081051 37.3814795,11.9724363 L36.677025,12.2448885 C36.6668432,12.248551 36.6568205,12.2528503 36.6526841,12.2546019 C36.2089795,12.434379 35.8801386,12.8203662 35.7727523,13.287086 C35.6625023,13.7635191 35.795025,14.2617675 36.1270477,14.6197293 L38.2042977,16.8649522 Z" id="Fill-3" fill="#7A85F5"></path>
                    </g>
            </g>
        </g>
    </g>
</svg>