<?xml version="1.0" encoding="UTF-8"?>
<svg width="109px" height="109px" viewBox="0 0 109 109" version="1.1" xmlns="http://www.w3.org/2000/svg" xmlns:xlink="http://www.w3.org/1999/xlink">
    <title>supermarkets</title>
    <g id="Page-1" stroke="none" stroke-width="1" fill="none" fill-rule="evenodd">
        <g id="SS_V2" transform="translate(-683.000000, -2179.000000)">
            <g id="supermarkets" transform="translate(683.000000, 2179.000000)">
                <circle id="Oval" fill="#FFFFFF" cx="54.5" cy="54.5" r="54.5"></circle>
                    <g transform="translate(28.000000, 28.000000)">
                        <path d="M2.20066667,20.9309747 L2.20066667,51.8601646 C2.20066667,52.2637428 2.46629333,52.5310506 2.86733333,52.5310506 L49.3333333,52.5310506 C49.7343733,52.5310506 50,52.2637428 50,51.8601646 L50,20.9309747 C51.0677333,20.2600886 51.7994667,19.051957 51.7994667,17.6447063 L50.4661333,0.94098481 C50.4661333,0.605541772 50.1328,0.338233924 49.7994667,0.338233924 L2.4008,0.335610759 C2.06746667,0.335610759 1.73413333,0.602918608 1.73413333,0.938361646 L0.4008,17.6420899 C0.4659,19.0520241 1.1326,20.2600886 2.20026667,20.9309747 L2.20066667,20.9309747 Z M48,20.194543 C46.8672,20.194543 45.8672,19.3900165 45.5989333,18.3155253 L50.3333333,18.3155253 C50.0677067,19.3874 49.0677333,20.194543 48,20.194543 Z M48.6666667,47.0299861 L36.1326667,47.0299861 L36.1326667,34.9540367 L48.6666667,34.9540367 L48.6666667,47.0299861 Z M3.534,34.9540367 L16.068,34.9540367 L16.068,47.0299861 L3.534,47.0299861 L3.534,34.9540367 Z M23,20.194543 C21.8672,20.194543 20.8672,19.3900165 20.5989333,18.3155253 L25.3333333,18.3155253 C25.1328133,19.3874 24.1328,20.194543 23,20.194543 Z M16.7344,20.194543 C15.6016,20.194543 14.6016,19.3900165 14.3333333,18.3155253 L19.0677333,18.3155253 C18.8672133,19.3874 17.8672,20.194543 16.7344,20.194543 Z M17.4010667,21.4681532 C18.4010667,21.2663641 19.2682667,20.6636266 19.8672,19.8591 C20.5338667,20.8654291 21.6666667,21.5363152 23,21.5363152 C23.8672,21.5363152 24.6666667,21.2008722 25.3333333,20.7317886 L25.3333333,47.0298519 L17.4013333,47.0298519 L17.4010667,21.4681532 Z M26.6664,20.5299861 C27.3330667,21.132737 28.2653333,21.5363152 29.2653333,21.5363152 C30.5309333,21.5363152 31.7314667,20.8654291 32.3981333,19.8591 C32.9319867,20.6636266 33.8642667,21.2690342 34.8642667,21.4681532 L34.8642667,46.9618241 L26.6662667,46.9618241 L26.6664,20.5299861 Z M26.86692,18.3155253 L31.60132,18.3155253 C31.3356933,19.3900165 30.4007867,20.194543 29.2002533,20.194543 C27.99972,20.194543 27.13252,19.3874 26.86692,18.3155253 Z M35.4655867,20.194543 C34.3327867,20.194543 33.3327867,19.3900165 33.06452,18.3155253 L37.79892,18.3155253 C37.5984,19.3874 36.66612,20.194543 35.4655867,20.194543 Z M44.1322533,18.3155253 C43.8666267,19.3900165 42.93172,20.194543 41.7311867,20.194543 C40.5306533,20.194543 39.5983867,19.3900165 39.33012,18.3155253 L44.1322533,18.3155253 Z M39.06712,16.9737532 L39.06712,1.67687975 L43.9993867,1.67687975 L43.9993867,17.0388291 L39.06712,17.0388291 L39.06712,16.9737532 Z M37.7337867,16.9737532 L33.06712,16.9737532 L33.06712,1.67687975 L37.7337867,1.67687975 L37.7337867,16.9737532 Z M31.7337867,16.9737532 L26.80152,16.9737532 L26.7989133,1.67687975 L31.73118,1.67687975 L31.7337867,16.9737532 Z M25.4655867,16.9737532 L20.53332,16.9737532 L20.53332,1.67687975 L25.4655867,1.67687975 L25.4655867,16.9737532 Z M19.1999867,16.9737532 L14.26772,16.9737532 L14.2651133,1.67687975 L19.19738,1.67687975 L19.1999867,16.9737532 Z M12.9317867,16.9737532 L7.93178667,16.9737532 L7.93178667,1.67687975 L12.9317867,1.67687975 L12.9317867,16.9737532 Z M12.86668,18.3155253 C12.6010533,19.3900165 11.6661467,20.194543 10.4656133,20.194543 C9.26508,20.194543 8.33281333,19.3900165 8.06454667,18.3155253 L12.86668,18.3155253 Z M6.59848,18.3155253 C6.33285333,19.3900165 5.39794667,20.194543 4.19741333,20.194543 C3.06461333,20.194543 2.12968,19.3900165 1.86408,18.3155253 L6.59848,18.3155253 Z M4.26514667,21.5363152 C5.53074667,21.5363152 6.73128,20.8654291 7.39794667,19.8591 C8.06461333,20.8654291 9.19741333,21.5363152 10.5307467,21.5363152 C11.86408,21.5363152 12.99688,20.8654291 13.6635467,19.8591 C14.1974,20.6636266 15.12968,21.2690342 16.12968,21.4681532 L16.12968,33.6125329 L3.53301333,33.6125329 L3.53301333,21.4681532 C3.79864,21.5362884 3.99916,21.5362884 4.26481333,21.5362884 L4.26514667,21.5363152 Z M3.53334667,51.1888089 L3.53334667,48.303462 L48.6660133,48.303462 L48.6660133,51.1888089 L3.53334667,51.1888089 Z M48.6660133,33.6122646 L36.1320133,33.6122646 L36.1320133,21.4678848 C37.1320133,21.2660957 37.9992133,20.6633582 38.5981467,19.8588316 C39.2648133,20.8651608 40.3976133,21.5360468 41.7309467,21.5360468 C43.06428,21.5360468 44.19708,20.8651608 44.8637467,19.8588316 C45.5304133,20.8651608 46.6632133,21.5360468 47.9965467,21.5360468 C48.1970667,21.5360468 48.4626933,21.5360468 48.6632133,21.4679116 L48.6660133,33.6122646 Z M50.4004133,16.973619 L45.33268,16.973619 L45.33268,1.67674557 L49.1321467,1.67674557 L50.4004133,16.973619 Z M3.06708,1.67674557 L6.60094667,1.67674557 L6.60094667,17.0386949 L1.86654667,17.0386949 L3.06708,1.67674557 Z" id="Fill-1" fill="#7A85F5"></path>
                        <path d="M28.6666667,33.2772911 C28.2656267,33.2772911 28,33.544599 28,33.9481772 L28,35.8271949 C28,36.2307732 28.2656267,36.498081 28.6666667,36.498081 C29.0677067,36.498081 29.3333333,36.2307732 29.3333333,35.8271949 L29.3333333,33.9481772 C29.3333333,33.6127342 29.0677067,33.2772911 28.6666667,33.2772911 Z" id="Fill-2" fill="#7A85F5"></path>
                        <path d="M23.4013333,33.2772911 C23.0002933,33.2772911 22.7346667,33.544599 22.7346667,33.9481772 L22.7346667,35.8271949 C22.7346667,36.2307732 23.0002933,36.498081 23.4013333,36.498081 C23.8023733,36.498081 24.068,36.2307732 24.068,35.8271949 L24.068,33.9481772 C24.068,33.6127342 23.7997733,33.2772911 23.4013333,33.2772911 Z" id="Fill-3" fill="#7A85F5"></path>
                    </g>
            </g>
        </g>
    </g>
</svg>