<?xml version="1.0" encoding="UTF-8"?>
<svg width="109px" height="109px" viewBox="0 0 109 109" version="1.1" xmlns="http://www.w3.org/2000/svg" xmlns:xlink="http://www.w3.org/1999/xlink">
    <title>sports</title>
    <g id="Page-1" stroke="none" stroke-width="1" fill="none" fill-rule="evenodd">
        <g id="SS_V2" transform="translate(-1035.000000, -2179.000000)">
            <g id="sports" transform="translate(1035.000000, 2179.000000)">
                <circle id="Oval-Copy-11" fill="#FFFFFF" cx="54.5" cy="54.5" r="54.5"></circle>
                    <g transform="translate(24.000000, 27.000000)">
                        <path d="M54.0178298,14.9307872 L54.0178298,8.16751064 L61.4406809,1.89383617 L52.9565745,1.89383617 L52.9565745,14.4745596 C48.3318362,12.6040723 42.1125106,11.3415809 35.0577021,10.9885766 L35.0577021,9.33449574 L39.9607149,9.33449574 L39.9607149,0.298985106 L22.0024809,0.298985106 L22.0024809,9.33713404 L26.9054936,9.33713404 L26.9054936,10.9912149 C19.853983,11.3441928 13.6315574,12.6066447 9.00662128,14.4771979 L9.00662128,8.16744468 L16.4294723,1.89377021 L7.94272766,1.89377021 L7.94272766,14.9309191 C3.32828202,17.0075234 0.558794787,19.7360511 0.558794787,22.7607277 L0.558794787,43.227983 C0.558794787,49.888366 13.9230894,55.1056 30.9790255,55.1056 C48.0376,55.1056 61.4018979,49.8908723 61.4018979,43.227983 L61.4044768,22.7607277 C61.4044768,19.7334128 58.6347917,17.0074574 54.0179023,14.9309191 L54.0178298,14.9307872 Z M54.0178298,2.95819149 L58.5369702,2.95819149 L54.0178298,6.7739617 L54.0178298,2.95819149 Z M9.00715553,2.95819149 L13.5237236,2.95819149 L9.00715553,6.7739617 L9.00715553,2.95819149 Z M60.3227087,22.5033617 L49.599347,25.9867064 C48.844464,23.7709319 44.8200045,22.2199426 39.7749853,21.4006191 L45.5668406,13.4316404 C54.1208619,15.2866936 60.0623087,18.6876574 60.3221811,22.5034277 L60.3227087,22.5033617 Z M12.2562194,27.0714426 C12.5705462,29.3619468 16.2574619,31.0005277 21.1169428,31.9203702 L19.8673789,32.7396936 C9.99420872,31.1989936 2.68216485,27.7027213 1.73699398,23.6527362 L12.2562194,27.0714426 Z M31.512496,20.728183 L31.512496,11.955183 C36.1243726,11.9860972 40.5170066,12.4344034 44.4203683,13.1970298 L38.5872236,21.2227319 C36.3276534,20.9161353 33.9083343,20.7486628 31.5119683,20.7280511 L31.512496,20.728183 Z M30.4484045,20.728183 C28.0523023,20.7487947 25.6329832,20.9162672 23.3731491,21.2228638 L17.5400045,13.1971617 C21.4433662,12.4345617 25.8361321,11.9862489 30.4478768,11.9553149 L30.4484045,20.728183 Z M30.9817298,21.7871298 C41.403666,21.7871298 48.6662404,24.4048489 48.6662404,26.7519447 C48.6662404,29.1016787 41.4030064,31.7193319 30.9817298,31.7193319 C20.5597936,31.7193319 13.2972185,29.1016128 13.2972185,26.7519447 C13.2946402,24.4022106 20.5604532,21.7871298 30.9817298,21.7871298 Z M22.6546021,32.1807043 C25.2800383,32.5774779 28.1579596,32.7810226 30.9790915,32.7810226 C33.8002234,32.7810226 36.6782106,32.5749055 39.3035809,32.1807043 L40.4990596,32.9639489 C37.4974681,33.3581502 34.2923319,33.5745698 30.9761234,33.5745698 C27.6599149,33.5745698 24.4551085,33.3581502 21.4531872,32.9639489 L22.6546021,32.1807043 Z M42.0942404,32.7397991 L40.8446766,31.9204757 C45.7038936,31.0006991 49.390783,29.3620523 49.7054,27.0715481 L60.2275915,23.6525779 C59.2820255,27.7027609 51.9677404,31.1987694 42.0945702,32.7395353 L42.0942404,32.7397991 Z M23.0668362,1.3638417 L38.8966234,1.3638417 L38.8966234,8.27618213 L23.0668362,8.27618213 L23.0668362,1.3638417 Z M27.9672766,9.33809702 L33.9936106,9.33809702 L33.9936106,10.9406651 C33.0042489,10.904593 31.9994532,10.8839813 30.9817298,10.8839813 C29.961434,10.8839813 28.9592106,10.904593 27.9698489,10.9406651 L27.9672766,9.33809702 Z M16.3963617,13.4320098 L22.1856447,21.4010545 C17.1409553,22.2203779 13.119134,23.7714332 12.361283,25.9871417 L1.64055826,22.503797 C1.89820123,18.6880268 7.83950426,15.2873928 16.3959,13.4320098 L16.3963617,13.4320098 Z M27.9850851,53.9853523 L27.9850851,45.3132672 C27.9850851,43.6617587 29.3274511,42.3193928 30.9815319,42.3193928 C32.6330404,42.3193928 33.9779787,43.6617587 33.9779787,45.3132672 L33.9779787,53.9833736 C32.9911894,54.0220181 31.9915383,54.0426298 30.9815319,54.0426298 C29.9715255,54.0426298 28.9718745,54.0220181 27.9850851,53.9859526 L27.9850851,53.9853523 Z M60.3378723,43.2283523 C60.3378723,48.5822502 49.1145532,53.1786928 35.0398936,53.9312672 L35.0398936,45.3132672 C35.0398936,43.0743417 33.2183468,41.2553672 30.9819936,41.2553672 C28.7430681,41.2553672 26.9215213,43.076914 26.9215213,45.3132672 L26.9215213,53.9312672 C12.8462021,53.1763843 1.62354123,48.5850864 1.62354123,43.2283523 L1.62354123,25.9349694 C5.09659787,31.0054481 16.7502234,34.6380545 30.9825213,34.6380545 C45.2148191,34.6380545 56.8681809,31.0052502 60.3415,25.9349694 L60.3378723,43.2283523 Z" id="Fill-1" stroke="#979797" stroke-width="0.2" fill="#7A85F5"></path>
                        <path d="M6.9103617,34.2180638 L6.11168298,33.7543038 L6.11168298,38.2425102 L6.40797702,38.3893711 C7.25302383,38.8093353 8.17801106,39.2086945 9.15451106,39.5797051 C9.47399574,39.7007964 9.80120404,39.816743 10.1310111,39.932683 L10.8369536,40.1774445 L10.8369536,36.0345253 L10.4942849,35.9057038 C9.15191894,35.38526 7.94615085,34.8184613 6.91042106,34.2181166 L6.9103617,34.2180638 Z M9.77542128,38.6727638 C9.69297447,38.6418496 9.6131066,38.6109287 9.53323213,38.5800145 C8.70104702,38.2631087 7.91008532,37.9281702 7.1783534,37.5752187 L7.1783534,35.5784889 C7.97188745,35.9958743 8.84015128,36.3900953 9.77800021,36.761106 L9.77542128,38.6727638 Z" id="Fill-2" stroke="#979797" stroke-width="0.2" fill="#7A85F5"></path>
                        <path d="M6.9103617,41.3084894 L6.11168298,40.8421504 L6.11168298,45.3303568 L6.40797702,45.4772177 C7.25302383,45.8971819 8.17801106,46.2939687 9.15451106,46.6675517 C9.47399574,46.7912219 9.80120404,46.9045896 10.1310111,47.0205296 L10.8369536,47.2652911 L10.8369536,43.1223719 L10.4942849,42.9935504 C9.15191894,42.4756789 7.94615085,41.9088802 6.91042106,41.3085355 L6.9103617,41.3084894 Z M9.77542128,45.7631894 C9.69297447,45.7322685 9.6131066,45.7013543 9.53323213,45.6730123 C8.70104702,45.3561066 7.91008532,45.0211681 7.1783534,44.6682166 L7.1783534,42.6714868 C7.97188745,43.0888721 8.84015128,43.4830932 9.77800021,43.8515315 L9.77542128,45.7631894 Z" id="Fill-3" stroke="#979797" stroke-width="0.2" fill="#7A85F5"></path>
                        <path d="M17.4991702,37.8688085 L16.8627864,37.7425594 L16.8627864,41.7205849 L17.2956321,41.8056106 C18.95743,42.1199374 20.6991683,42.377587 22.4769194,42.5708489 L23.0669285,42.635263 L23.0669285,38.7164672 L22.5954383,38.6623623 C20.8356936,38.4613966 19.122383,38.1934445 17.4991702,37.8688283 L17.4991702,37.8688085 Z M22.0028106,41.4475277 C20.6115043,41.285213 19.2434149,41.079096 17.9268383,40.8394791 L17.9268383,39.0359387 C19.2382702,39.2832791 20.6063596,39.4945474 22.0028106,39.66202 L22.0028106,41.4475277 Z" id="Fill-4" stroke="#979797" stroke-width="0.2" fill="#7A85F5"></path>
                        <path d="M17.4991702,44.959234 L16.8627864,44.8329849 L16.8627864,48.8110104 L17.2956321,48.8934572 C18.9522853,49.207784 20.69653,49.4654336 22.4769194,49.6586955 L23.0669285,49.7231096 L23.0669285,45.8043138 L22.5954383,45.7502089 C20.8331213,45.5518221 19.1172383,45.28387 17.4991702,44.9592472 L17.4991702,44.959234 Z M22.0028106,48.5353809 C20.6089319,48.3730662 19.2408426,48.1695215 17.9268383,47.9299113 L17.9268383,46.1263709 C19.2382702,46.3737113 20.6037872,46.5824072 22.0028106,46.7524521 L22.0028106,48.5353809 Z" id="Fill-5" stroke="#979797" stroke-width="0.2" fill="#7A85F5"></path>
                        <path d="M51.4672553,35.9006383 L51.1245866,36.0294598 L51.1245866,40.1723789 L51.8305291,39.9276174 C52.1628953,39.8116774 52.4875247,39.6957374 52.8070291,39.5746396 C53.7835291,39.2036289 54.7084504,38.8016843 55.5535632,38.3843055 L55.8498572,38.2374447 L55.8498572,33.7492383 L55.0511785,34.2129983 C54.0154487,34.8184679 52.8096806,35.38526 51.4673147,35.9005855 L51.4672553,35.9006383 Z M54.785713,37.5779362 C54.0539745,37.9283351 53.2630128,38.2684447 52.4308277,38.5827319 C52.3483809,38.6136528 52.2710853,38.644567 52.1886385,38.6754813 L52.1886385,36.7637706 C53.1239151,36.39276 53.9947513,35.9985323 54.785713,35.5811536 L54.785713,37.5779362 Z" id="Fill-6" stroke="#979797" stroke-width="0.2" fill="#7A85F5"></path>
                        <path d="M51.4672553,42.9910638 L51.1245866,43.1198853 L51.1245866,47.2628045 L51.8305291,47.018043 C52.1628953,46.902103 52.4875247,46.786163 52.8070291,46.6650651 C53.7835291,46.2940545 54.7084504,45.8946821 55.5535632,45.4747311 L55.8498572,45.3278702 L55.8498572,40.8396638 L55.0511785,41.3060028 C54.0154487,41.9088934 52.8096806,42.4756921 51.4673147,42.9910177 L51.4672553,42.9910638 Z M54.785713,44.6683617 C54.0539745,45.0187606 53.2630128,45.3588702 52.4308277,45.6731574 C52.3483809,45.7040783 52.2710853,45.7349926 52.1886385,45.7633345 L52.1886385,43.8516238 C53.1239151,43.4806132 53.9947513,43.0863855 54.785713,42.6715791 L54.785713,44.6683617 Z" id="Fill-7" stroke="#979797" stroke-width="0.2" fill="#7A85F5"></path>
                        <path d="M39.3686809,38.6596383 L38.8971906,38.7137432 L38.8971906,42.6325389 L39.4871998,42.5681249 C41.2623785,42.3748894 43.0066232,42.1172464 44.668487,41.8028866 L45.1013328,41.7178609 L45.1013328,37.7398353 L44.4649489,37.8660845 C42.8418021,38.1932928 41.1258532,38.4612449 39.3686809,38.6596185 L39.3686809,38.6596383 Z M44.0372149,40.839334 C42.7206383,41.0789443 41.3525489,41.2824889 39.9612426,41.4473826 L39.9612426,39.6644868 C41.3576936,39.4944419 42.7232106,39.285746 44.0372149,39.0384055 L44.0372149,40.839334 Z" id="Fill-8" stroke="#979797" stroke-width="0.2" fill="#7A85F5"></path>
                        <path d="M39.3686809,45.7500638 L38.8971906,45.8041687 L38.8971906,49.7229645 L39.4871998,49.6585504 C41.2675232,49.4627426 43.0118338,49.205093 44.668487,48.8933121 L45.1013328,48.8108653 L45.1013328,44.8328398 L44.4649489,44.9590889 C42.8443745,45.2837249 41.1309979,45.551677 39.3686809,45.7500506 L39.3686809,45.7500638 Z M44.0372149,47.9297596 C42.7232106,48.1693698 41.3551213,48.3729145 39.9612426,48.5352291 L39.9612426,46.7523334 C41.360266,46.5822885 42.725783,46.3735926 44.0372149,46.1262521 L44.0372149,47.9297596 Z" id="Fill-9" stroke="#979797" stroke-width="0.2" fill="#7A85F5"></path>
                    </g>
            </g>
        </g>
    </g>
</svg>