<?xml version="1.0" encoding="UTF-8"?>
<svg width="109px" height="109px" viewBox="0 0 109 109" version="1.1" xmlns="http://www.w3.org/2000/svg" xmlns:xlink="http://www.w3.org/1999/xlink">
    <title>restaurants</title>
    <g id="Page-1" stroke="none" stroke-width="1" fill="none" fill-rule="evenodd">
        <g id="SS_V2" transform="translate(-1035.000000, -2312.000000)">
            <g id="restaurants" transform="translate(1035.000000, 2312.000000)">
                <circle id="Oval-Copy-12" fill="#FFFFFF" cx="54.5" cy="54.5" r="54.5"></circle>
                    <g transform="translate(28.000000, 28.000000)">
                        <path d="M0.429428571,54.0000026 C0.193377857,54.0000026 1.92857143e-05,53.8066414 1.92857143e-05,53.5705907 L1.92857143e-05,50.1428764 C1.92857143e-05,49.9068257 0.193377857,49.7134671 0.429428571,49.7134671 L5.14285714,49.7134671 L5.14285714,28.2857529 L0.429428571,28.2857529 C0.193377857,28.2857529 1.92857143e-05,28.0923943 1.92857143e-05,27.8563436 L1.92857143e-05,15.8554864 C1.92857143e-05,15.6219493 0.193377857,15.4285907 0.429428571,15.4285907 L9.42942857,15.4285907 L9.42942857,0.429447857 C9.42942857,0.193397143 9.62028,3.85714286e-05 9.85632429,3.85714286e-05 L44.1411814,3.85714286e-05 C44.3797393,3.85714286e-05 44.5705907,0.193397143 44.5705907,0.429447857 L44.5705907,15.4285907 L53.5705907,15.4285907 C53.8066414,15.4285907 54,15.6219493 54,15.858 L54,27.8588571 C54,28.0949079 53.8066414,28.2882664 53.5705907,28.2882664 L48.8571621,28.2857529 L48.8571621,49.7134671 L53.5705907,49.7134671 C53.8066414,49.7134671 54,49.9068257 54,50.1428764 L54,53.5705933 C54,53.806644 53.8066414,54.0000026 53.5705907,54.0000026 L0.429428571,54.0000026 Z M0.856324286,53.1437143 L53.1411814,53.1437143 L53.1411814,50.5722857 L0.856324286,50.5722857 L0.856324286,53.1437143 Z M16.7143243,36.8562857 C16.950375,36.8562857 17.1437336,37.0496443 17.1437336,37.285695 L17.1437336,49.7134093 L48.0008764,49.7134093 L48.0008764,28.285695 L5.99916214,28.285695 L5.99916214,49.7134093 L10.2857336,49.7134093 L10.2857336,37.285695 C10.2857336,37.0496443 10.4790921,36.8562857 10.7151429,36.8562857 L16.7143243,36.8562857 Z M11.1420386,49.7134286 L16.2848957,49.7134286 L16.2848957,37.7151429 L11.1420386,37.7151429 L11.1420386,49.7134286 Z M0.856265143,27.4294286 L53.1411814,27.4294286 L53.143695,16.2848571 L0.856265143,16.2848571 L0.856265143,27.4294286 Z M34.8602529,3.42771429 C34.9757679,3.42771429 35.0862557,3.47291357 35.1666129,3.55578429 C36.0932271,4.50252 36.6255771,5.88614143 36.6255771,7.35262714 C36.6255771,9.22347 35.7717986,10.9209986 34.3982057,11.7848057 L34.1897786,11.9153829 L34.2977593,15.4285779 L43.7143307,15.4285779 L43.7143307,0.856182857 L10.2857593,0.856182857 L10.2857593,15.4285779 L20.5843307,15.4285779 L20.6897979,11.91789 L20.4813707,11.7873129 C19.1077779,10.9234414 18.2539993,9.22591286 18.2539993,7.35513429 C18.2539993,4.60036286 20.1222707,2.35794857 22.420035,2.35794857 C24.7227493,2.35794857 26.5935921,4.60042714 26.5935921,7.35513429 C26.5935921,9.22597714 25.7398136,10.9235057 24.3662207,11.7873129 L24.1577936,11.91789 L24.270795,15.4285779 L30.613995,15.4285779 L30.7194621,11.91789 L30.511035,11.7873129 C29.1399493,10.9234414 28.2861707,9.22591286 28.2861707,7.35513429 C28.2861707,5.88864857 28.8185336,4.50496286 29.745135,3.55829143 C29.8254921,3.47542071 29.9359864,3.43022143 30.051495,3.43022143 C30.1644964,3.43022143 30.2699636,3.47291357 30.3503207,3.55075714 C30.4331914,3.63111429 30.4783907,3.739095 30.4783907,3.85209643 C30.4783907,3.96761143 30.4356986,4.07559214 30.3553414,4.15594929 C29.5869343,4.94447786 29.1424629,6.10965643 29.1424629,7.35519214 C29.1424629,9.09289929 30.0238843,10.6623707 31.3347343,11.260035 C31.492935,11.3328579 31.5908743,11.4885514 31.5858471,11.6618207 L31.4703321,15.4285779 L33.4415893,15.4285779 L33.3260743,11.6618207 C33.3210536,11.4885514 33.4189864,11.3303507 33.5771871,11.260035 C34.8880371,10.6623771 35.7694586,9.09540643 35.7694586,7.35519214 C35.7694586,6.10965643 35.3274943,4.94447786 34.5540729,4.15845643 C34.4737157,4.07809929 34.4310236,3.97011857 34.4310236,3.85460357 C34.4310236,3.73908857 34.4787364,3.63362143 34.5590936,3.55326429 C34.6419643,3.47290714 34.7474314,3.42770786 34.8604329,3.42770786 L34.8602529,3.42771429 Z M22.4222529,3.21426643 C20.5966671,3.21426643 19.1125671,5.07250929 19.1125671,7.35516643 C19.1125671,9.09287357 19.9939886,10.662345 21.3048386,11.2600093 C21.4630393,11.3328321 21.5609786,11.4885257 21.5559514,11.661795 L21.4404364,15.4285521 L23.4116936,15.4285521 L23.2961786,11.661795 C23.2911579,11.4885257 23.3890907,11.330325 23.5472914,11.2600093 C24.8581414,10.6623514 25.7395629,9.09538071 25.7395629,7.35516643 C25.7395629,5.07250929 24.2529557,3.21426643 22.4222914,3.21426643 L22.4222529,3.21426643 Z" id="Fill-1" stroke="#7A85F5" stroke-width="0.3" fill="#7A85F5"></path>
                        <path d="M22.7134286,46.2857143 C22.4773779,46.2857143 22.2840193,46.0923557 22.2840193,45.856305 L22.2840193,32.1428764 C22.2840193,31.9068257 22.4773779,31.7134671 22.7134286,31.7134671 L44.1411429,31.7134671 C44.3771936,31.7134671 44.5705521,31.9068257 44.5705521,32.1428764 L44.5705521,45.856305 C44.5705521,46.0923557 44.3771936,46.2857143 44.1411429,46.2857143 L22.7134286,46.2857143 Z M23.1428379,45.4294286 L43.7142664,45.4294286 L43.7142664,32.5722857 L23.1428379,32.5722857 L23.1428379,45.4294286 Z" id="Fill-2" stroke="#7A85F5" stroke-width="0.3" fill="#7A85F5"></path>
                        <path d="M32.4565714,9.42942857 C32.2205207,9.42942857 32.0271621,9.23607 32.0271621,9.00001929 L32.0271621,3.85716214 C32.0271621,3.62111143 32.2205207,3.42775286 32.4565714,3.42775286 C32.6926221,3.42775286 32.8859807,3.62111143 32.8859807,3.85716214 L32.8859807,9.00001929 C32.8834671,9.23607 32.6926221,9.42942857 32.4565714,9.42942857 Z" id="Fill-3" stroke="#7A85F5" stroke-width="0.3" fill="#7A85F5"></path>
                    </g>
            </g>
        </g>
    </g>
</svg>