<?xml version="1.0" encoding="UTF-8"?>
<svg width="589px" height="493px" viewBox="0 0 589 493" version="1.1" xmlns="http://www.w3.org/2000/svg" xmlns:xlink="http://www.w3.org/1999/xlink">
    <title>97791B46-32BC-4E68-BB35-ACDE7DF468EB</title>
    <g id="Page-1" stroke="none" stroke-width="1" fill="none" fill-rule="evenodd">
        <g id="SS_V2" transform="translate(-126.000000, -1462.000000)">
            <g id="solution" transform="translate(128.000000, 1463.000000)">
                <path d="M406,204.39809 C406,316.788042 315.113562,407.897841 203.000248,407.897841 C90.8864384,407.897841 0,316.788042 0,204.39809 C0,92.0081372 90.8864384,0.897840532 203.000248,0.897840532 C315.113562,0.897840532 406,92.0081372 406,204.39809 Z" id="Stroke-13" stroke="#7A85F5" stroke-width="3" fill-opacity="0.8" fill="#FFFFFF"></path>
                <path d="M376,203.398152 C376,299.219784 298.321943,376.897841 202.500312,376.897841 C106.67868,376.897841 29,299.219784 29,203.398152 C29,107.57652 106.67868,29.8978405 202.500312,29.8978405 C298.321943,29.8978405 376,107.57652 376,203.398152 Z" id="Stroke-11" stroke="#7A85F5" stroke-width="2" fill="#FFFFFF" opacity="0.400000006"></path>
                <path d="M308,203.897841 C308,261.887754 260.990386,308.897841 203.000472,308.897841 C145.010086,308.897841 98,261.887754 98,203.897841 C98,145.907927 145.010086,98.8978405 203.000472,98.8978405 C260.990386,98.8978405 308,145.907927 308,203.897841 Z" id="Stroke-3" stroke="#7A85F5" stroke-width="2" fill-opacity="0.8" fill="#FFFFFF" opacity="0.5"></path>
                <path d="M232.247714,140.897841 L172.752286,140.897841 C167.392019,140.897841 163,145.277682 163,150.637462 L163,275.158717 C163,280.512023 167.385537,284.897841 172.752286,284.897841 L232.241232,284.897841 C237.601998,284.897841 241.993518,280.517999 241.993518,275.158717 L242,150.637462 C241.993518,145.283658 237.60848,140.897841 232.247714,140.897841 L232.247714,140.897841 Z M202.500249,276.52804 C199.146281,276.52804 196.416039,273.794374 196.416039,270.451732 C196.416039,267.102617 199.152762,264.375423 202.500249,264.375423 C205.853719,264.375423 208.583961,267.10909 208.583961,270.451732 C208.583961,273.794374 205.853719,276.52804 202.500249,276.52804 L202.500249,276.52804 Z M236.047416,258.154215 L168.953083,258.154215 L168.953083,153.576776 L236.040934,153.576776 L236.047416,258.154215 Z" id="Fill-1" fill="#292C47"></path>
                <path d="M585,347.397841 C585,426.098782 521.200554,489.897841 442.500249,489.897841 C363.799446,489.897841 300,426.098782 300,347.397841 C300,268.697398 363.799446,204.897841 442.500249,204.897841 C521.200554,204.897841 585,268.697398 585,347.397841 Z" id="Stroke-5" stroke="#7A85F5" stroke-width="3" fill-opacity="0.2" fill="#FFFFFF"></path>
                <path d="M556,347.897841 C556,410.305683 505.408117,460.897841 443,460.897841 C380.591883,460.897841 330,410.305683 330,347.897841 C330,285.489998 380.591883,234.897841 443,234.897841 C505.408117,234.897841 556,285.489998 556,347.897841 Z" id="Stroke-7" stroke="#7A85F5" stroke-width="2" fill="#FFFFFF" opacity="0.400000006"></path>
                <path d="M539,347.897841 C539,401.469627 495.795643,444.897841 442.500495,444.897841 C389.204852,444.897841 346,401.469627 346,347.897841 C346,294.326054 389.204852,250.897841 442.500495,250.897841 C495.795643,250.897841 539,294.326054 539,347.897841 Z" id="Stroke-9" stroke="#7A85F5" stroke-width="2" fill="#FFFFFF" opacity="0.400000006"></path>
                <path id="Stroke-15" d="M258.422991,211.296588 L274.299794,216.849896 L269.618,221.342 L369,324.899 L373.681491,320.407294 L378.577009,336.499094 L362.700206,330.945785 L367.381,326.453 L267.999,222.895 L263.318509,227.388387 L258.422991,211.296588 Z" fill="#7A85F5" fill-rule="nonzero"></path>
                <path d="M200.557734,225.869983 L200.696078,216.02195 L199,216.000799 L199.022876,214.418613 L200.717865,214.44028 L200.726035,213.897065 C200.748366,212.291149 201.143246,210.831742 202.178105,209.923804 C203.011983,209.178882 204.11329,208.885349 205.135076,208.898246 C205.907407,208.908048 206.578976,209.081897 207,209.252136 L206.678649,210.85444 C206.356209,210.708964 205.909586,210.585154 205.285948,210.576384 C203.416122,210.554202 202.919935,212.105951 202.895425,213.853216 L202.88671,214.467106 L205.804466,214.504248 L205.782135,216.086434 L202.864379,216.049807 L202.72549,225.897841 L200.557734,225.869983 Z" id="Fill-21" fill="#9B9B9B"></path>
                <path d="M209.980423,211.897841 L209.935276,214.96927 L213,215.005955 L212.978223,216.486884 L209.913499,216.449716 L209.829046,222.217033 C209.809925,223.543014 210.212004,224.298925 211.4039,224.313888 C211.962668,224.319681 212.377494,224.25886 212.646255,224.196109 L212.721678,225.655316 C212.30579,225.804953 211.647697,225.907286 210.821231,225.897149 C209.823735,225.885564 209.02595,225.588703 208.523484,225.051939 C207.923818,224.470284 207.719326,223.516948 207.737916,222.258063 L207.823431,216.424132 L206,216.401928 L206.021246,214.921965 L207.845208,214.943687 L207.883451,212.380059 L209.980423,211.897841 Z" id="Fill-23" fill="#9B9B9B"></path>
                <polygon id="Fill-27" fill="#767676" points="182 198.897841 176 195.397841 182 191.897841"></polygon>
                <polygon id="Fill-29" fill="#767676" points="224 198.897841 230 195.397841 224 191.897841"></polygon>
                <path d="M472.754337,271.897841 L410.246666,271.897841 C404.614008,271.897841 400,276.490482 400,282.110983 L400,412.685198 C400,418.298704 404.607992,422.897841 410.246666,422.897841 L472.747318,422.897841 C478.379476,422.897841 482.993483,418.305699 482.993483,412.685198 L483,282.110983 C482.993483,276.496977 478.385992,271.897841 472.753835,271.897841 L472.754337,271.897841 Z M441.5,414.121304 C437.976831,414.121304 435.107865,411.255088 435.107865,407.74977 C435.107865,404.237957 437.98385,401.378237 441.5,401.378237 C445.02367,401.378237 447.892135,404.243953 447.892135,407.74977 C447.892135,411.255088 445.02367,414.121304 441.5,414.121304 L441.5,414.121304 Z M476.746225,394.854298 L406.254276,394.854298 L406.254276,285.193064 L476.739207,285.193064 L476.746225,394.854298 Z" id="Fill-31" fill="#292C47"></path>
                <path d="M430.557988,359.8697 L430.696117,350.022614 L429,350.000892 L429.022935,348.418625 L430.71853,348.440841 L430.725827,347.897291 C430.748241,346.291326 431.143341,344.831493 432.178004,343.923602 C433.011989,343.178628 434.11337,342.885872 435.135001,342.898214 C435.908001,342.908581 436.578838,343.081865 437,343.252681 L436.678916,344.854203 C436.356268,344.709059 435.909565,344.585637 435.286161,344.57675 C433.41595,344.554535 432.92025,346.106194 432.895231,347.853353 L432.887412,348.4675 L435.804795,348.504526 L435.781861,350.086794 L432.864477,350.049767 L432.725827,359.897841 L430.557988,359.8697 Z" id="Fill-35" fill="#9B9B9B"></path>
                <path d="M439.98112,344.897841 L439.935371,348.188624 L443,348.228218 L442.978142,349.814961 L439.914022,349.774872 L439.829642,355.953566 C439.810326,357.374013 440.212403,358.184706 441.404401,358.200049 C441.963547,358.206978 442.377823,358.141648 442.646213,358.073842 L442.72246,359.637818 C442.306151,359.79768 441.647883,359.907555 440.821364,359.897161 C439.824051,359.883798 439.026505,359.566054 438.523782,358.990946 C437.924479,358.368325 437.720137,357.346792 437.738944,355.997615 L437.824341,349.747156 L436,349.723399 L436.021858,348.137646 L437.846199,348.160908 L437.883814,345.414546 L439.98112,344.897841 Z" id="Fill-37" fill="#9B9B9B"></path>
                <line x1="418" y1="330.397841" x2="465" y2="330.397841" id="Stroke-39" stroke="#767676" stroke-width="2"></line>
                <polygon id="Fill-41" fill="#767676" points="419 334.897841 412 330.89729 419 326.897841"></polygon>
                <polygon id="Fill-43" fill="#767676" points="463 334.897841 470 330.89729 463 326.897841"></polygon>
                <path d="M445,329.897841 C445,334.868756 440.970412,338.897841 436,338.897841 C431.029588,338.897841 427,334.868756 427,329.897841 C427,324.927428 431.029588,320.897841 436,320.897841 C440.970412,320.897841 445,324.927428 445,329.897841" id="Fill-33" fill="#7A85F5"></path>
                <line x1="181" y1="195.397841" x2="226" y2="195.397841" id="Stroke-25" stroke="#767676" stroke-width="2"></line>
                <path d="M214,195.398089 C214,200.092352 210.194623,203.897841 205.500497,203.897841 C200.805377,203.897841 197,200.092352 197,195.398089 C197,190.703329 200.805377,186.897841 205.500497,186.897841 C210.194623,186.897841 214,190.703329 214,195.398089" id="Fill-45" fill="#7A85F5"></path>
            </g>
        </g>
    </g>
</svg>