<?xml version="1.0" encoding="UTF-8"?>
<svg width="436px" height="524px" viewBox="0 0 436 524" version="1.1" xmlns="http://www.w3.org/2000/svg" xmlns:xlink="http://www.w3.org/1999/xlink">
    <title>949A9800-E6F1-4005-B7B9-50FD5F1D361D@1x</title>
    <defs>
        <polygon id="path-1" points="0.288837386 0.245243402 101.988159 0.245243402 101.988159 206.732964 0.288837386 206.732964"></polygon>
        <polygon id="path-3" points="0 0.110182419 94.8572872 0.110182419 94.8572872 205 0 205"></polygon>
    </defs>
    <g id="Page-1" stroke="none" stroke-width="1" fill="none" fill-rule="evenodd">
        <g id="SS_V2" transform="translate(-127.000000, -2846.000000)">
            <g id="security" transform="translate(128.000000, 2847.000000)">
                <g id="Group-23" opacity="0.300000012" transform="translate(52.000000, 77.000000)">
                    <path d="M241.187212,103.569204 C241.850182,106.522747 244.778498,108.378481 247.72738,107.714464 C250.676262,107.050447 252.528463,104.118109 251.865494,101.164566 C251.248497,98.4121663 248.662554,96.6152004 245.927201,96.9205513 L244.759141,95.2823194 L246.58896,94.1530057 L215.204383,43.1727313 C214.775509,42.2712191 214.271628,41.4448329 213.686691,40.7069015 L213.39634,40.2349404 L213.326171,40.2773503 C212.294819,39.1068384 211.033604,38.1889681 209.494136,37.6073473 L208.257723,37.4837529 L208.370839,37.4268025 L208.370839,30.806625 C209.161442,30.1571485 209.83046,29.3689311 210.359142,28.4862004 C210.269012,30.2849839 211.631244,31.7475178 211.631244,31.7475178 C212.985613,30.6684901 212.547666,28.4274325 212.10851,27.0563826 C213.801017,29.3010754 217.379599,28.1214757 217.379599,28.1214757 C217.077755,26.7795069 215.443923,26.2215144 213.974623,25.9900778 C214.68296,25.4551079 215.147522,24.6135753 215.147522,23.6569302 C215.147522,23.332192 215.082798,23.026841 214.986014,22.7348189 C215.699795,21.0117673 216.339173,18.6713495 216.014342,16.233389 C224.250647,16.4042401 226.209914,8.22156254 221.508035,4.55613983 C215.191075,-0.367037858 211.086835,7.90470038 210.766844,8.57841113 C206.622681,5.85266951 201.266906,5.81571236 196.744681,9.00250963 C192.984629,11.6531252 193.122546,15.8123198 193.700225,18.4483948 C193.663931,19.7788524 193.81818,20.7251979 193.81818,20.7251979 L193.81818,23.9101776 C193.81818,27.8857981 196.417431,31.2513226 200.005691,32.4030529 L200.005691,37.1899132 C198.473482,37.9145158 195.886329,39.9665467 193.694176,45.7821488 L190.062362,50.682304 C188.547695,52.4774523 187.937957,54.9990208 188.437604,57.4054768 C189.058835,60.4032474 190.924343,64.2116519 191.701034,65.9595435 L175.933737,72.4506739 L176.715267,74.355482 L174.458389,75.0140464 C174.432378,74.9764834 174.411812,74.9352853 174.379147,74.9019632 L165.116329,65.4675893 C164.748551,65.092565 164.1249,65.1622383 163.848461,65.6111769 L161.120367,70.0430062 C160.925589,70.3598683 160.970957,70.7688205 161.229249,71.0353967 L164.620917,74.5202746 C163.980329,75.3266676 163.556295,76.3202698 163.454067,77.4235317 C163.175208,80.4376603 165.388534,83.1076633 168.397906,83.3863566 C170.046256,83.5396379 171.587538,82.9404473 172.694503,81.8753542 L178.983033,79.8820913 L179.941193,82.218874 L191.505046,77.4586713 C191.447581,78.8236626 191.399189,80.0196204 191.367734,80.8114728 L191.309664,80.8114728 L183.882715,192.48933 L185.776048,192.48933 L185.241922,197.98807 C185.220751,197.948689 185.190506,197.908703 185.175384,197.870534 C185.025974,197.497327 184.607383,197.314965 184.243234,197.485816 L173.201409,202.950628 C172.493677,203.282637 171.946848,203.883039 171.681298,204.619759 C171.432079,205.311645 171.9656,206.035036 172.698738,206 L192.974346,204.999024 C193.770998,204.960249 194.372872,204.258669 194.291816,203.463181 L193.895002,199.556022 C193.889558,199.491196 193.872016,199.427581 193.84782,199.36639 L193.625217,198.816879 C193.482461,198.467301 193.097745,198.312202 192.768075,198.429132 L193.306435,192.48933 L195.063062,192.48933 L204.648291,140.649953 L207.691538,147.353133 L232.745243,185.780697 L234.185507,184.714393 L238.232886,190.854127 C237.960077,190.752949 237.646134,190.822017 237.456196,191.067994 L230.120586,200.976752 C229.642111,201.595936 229.428582,202.380518 229.528995,203.15783 C229.620939,203.886674 230.42606,204.286538 231.062414,203.91939 L248.647431,193.764049 C249.339436,193.36479 249.55599,192.465701 249.121672,191.794414 L246.987589,188.499169 C246.952504,188.444642 246.909557,188.395568 246.859955,188.352552 L246.41112,187.965411 C246.102017,187.698834 245.642898,187.762449 245.416666,188.07507 L240.193968,180.264388 L241.638467,179.194448 L222.93983,142.545673 L213.373958,101.01916 C214.956374,96.2110951 216.246019,88.8008827 213.369724,80.8114728 C213.369724,80.8114728 215.434244,73.8974556 216.59807,65.5566499 L237.614074,99.6953672 L239.624758,98.4539703 L241.262825,100.866485 C241.019655,101.719529 240.979732,102.643458 241.187212,103.569204" id="Fill-1" fill="#232846" opacity="0.699999988"></path>
                    <path d="M312.646123,109.282662 C309.487638,103.642852 306.143253,100.900898 306.143253,100.900898 L309.18608,86.8872104 L309.29326,86.8568791 L313.950451,101.264874 L312.646123,109.282662 Z M285.34848,50.3021496 L285.378151,50.2590791 L285.561024,51.0677127 C285.47867,50.818389 285.404795,50.559966 285.34848,50.3021496 L285.34848,50.3021496 Z M337.939436,230.4946 C337.675421,229.772107 337.137098,229.179433 336.440124,228.85792 L324.534646,223.511111 C324.177984,223.343682 323.765613,223.525063 323.620284,223.891466 C323.556702,224.051009 323.487671,224.227537 323.402896,224.404066 L318.891034,176.926413 L321.155745,177.157537 C321.155745,177.157537 319.0951,147.243552 318.054181,128.530933 C317.883419,125.463221 317.447432,122.661818 316.840077,120.115198 L320.598045,101.602765 C320.704619,101.068327 320.668893,100.538742 320.512664,100.052834 L320.49147,99.9842849 L315.669573,85.073396 L318.409026,84.3041931 L313.963773,75.9739927 C312.855033,73.9017553 311.089285,72.2529434 308.943259,71.2981127 L305.492905,69.7572804 L300.844192,67.6152809 L300.844192,67.7444924 L300.833292,63.1092564 L314.26412,63.0771051 C314.83272,58.2677672 313.226833,55.0653839 310.454682,52.7086384 C307.686163,50.3482532 306.842043,51.4474611 308.182704,46.0035915 C309.463416,40.8223912 303.589094,38.5250952 301.314694,37.8420333 C298.297905,35.641191 291.805935,32.2131425 287.233519,39.0031172 C284.47045,38.8423611 279.809626,39.408344 281.977451,45.5492279 C282.816121,47.9150728 283.910933,49.2041549 285.076593,49.811995 L285.079016,50.7031299 L283.138873,53.5833944 C282.817937,54.1214724 283.236364,54.7881554 283.889739,54.7863355 L285.092943,55.0113941 C285.174691,58.661468 288.155147,61.5854096 291.815623,61.5769169 C292.043305,61.5757036 292.266749,61.5581114 292.485348,61.5277801 L292.501698,68.3887302 L288.664405,69.9605004 C288.664405,69.9647468 288.664405,69.9865854 288.668643,70.0290493 L285.175296,71.4879869 C282.908768,72.4318983 281.039473,74.1359133 279.89319,76.3124905 L275.624149,84.4061064 L277.580641,84.9441845 L274.93868,88.931543 L274.858143,89.0522618 L275.954167,65.8675888 L278.960056,61.5253536 C279.200455,61.1807895 279.125974,60.7027675 278.794745,60.4455577 L266.435719,50.8074698 C266.070579,50.5247816 265.541945,50.6072829 265.285197,50.9955241 L261.132419,57.229222 C260.905948,57.5701463 260.975584,58.0348225 261.298336,58.2920323 L265.827153,61.9396797 C266.587103,63.6685664 267.97984,65.7954002 270.44014,66.9085606 L267.688576,100.691005 C267.543247,102.507853 268.891174,104.096609 270.70476,104.247659 C271.937635,104.347752 273.071201,103.751438 273.713072,102.789934 L273.747587,102.734125 L284.308772,86.7962164 L285.431439,87.1025629 L288.795201,99.7586197 C273.46904,119.344782 283.173388,173.262386 283.173388,173.262386 L285.593117,173.510497 L289.770117,224.575134 C289.657487,224.368275 289.579978,224.162022 289.501863,223.972754 C289.355323,223.606958 288.946585,223.427396 288.58629,223.596039 L276.710484,229.000478 C276.015326,229.325023 275.475186,229.920124 275.219044,230.64383 C275.176051,230.760302 275.159701,230.876168 275.159701,230.988394 C275.161518,231.543458 275.625965,232.028759 276.223631,231.998671 L296.152485,230.968375 C296.93484,230.927731 297.525239,230.237996 297.44228,229.454841 L297.04202,225.61186 C297.037781,225.547557 297.02022,225.487501 296.998421,225.426839 L296.778005,224.885121 C296.605427,224.472615 296.084665,224.33127 295.737691,224.612139 C295.716498,224.629731 295.695304,224.646716 295.673504,224.663702 L296.53034,174.63397 L307.592304,175.765329 L317.507986,224.655209 C317.465598,224.624878 317.426843,224.5903 317.388089,224.560575 C317.039299,224.281527 316.519142,224.425298 316.353225,224.838411 L316.135231,225.381948 C316.109799,225.441398 316.092238,225.50206 316.088605,225.566363 L315.707116,229.411164 C315.631424,230.194319 316.221218,230.881628 317.007811,230.919238 L336.941509,231.852837 C337.53857,231.881955 338.001806,231.394227 338,230.839164 C338,230.726938 337.982429,230.610465 337.939436,230.4946 L337.939436,230.4946 Z" id="Fill-3" fill="#232846"></path>
                    <g id="Group-7" transform="translate(44.000000, 0.000000)">
                        <mask id="mask-2" fill="white">
                            <use xlink:href="#path-1"></use>
                        </mask>
                        <g id="Clip-6"></g>
                        <path d="M99.7397893,101.359037 L94.0496464,95.5484683 L95.6646464,93.9719903 L70.2441821,70.4632249 L69.1713607,68.1674067 L69.1282536,67.5172689 L69.1155036,67.3448701 L68.4087893,57.0853188 C68.4087893,57.0422191 68.4130393,56.9948701 68.4130393,56.9475211 C68.4130393,53.8856208 65.3372536,46.7784185 60.5468964,41.3988466 C60.5681464,41.2561927 60.5857536,41.1147528 60.5942536,40.9720988 L64.1527179,36.5577176 C63.0155393,35.0504419 61.3914321,34.0506501 59.5863964,33.4005123 L59.5863964,31.4749874 C59.7108607,31.484093 59.8359321,31.4877352 59.9652536,31.4877352 C64.0361464,31.4877352 67.340825,28.1848408 67.340825,24.1146501 L67.340825,23.205307 L68.6546821,22.9558144 C69.3735393,22.9558144 69.8301107,22.2279757 69.4773607,21.6330783 L67.340825,18.4849786 L67.340825,15.4698202 L67.340825,15.2889229 L67.336575,15.2889229 C67.3317179,14.9647645 67.3128964,14.6436413 67.281325,14.3273745 C67.277075,14.288524 67.2697893,14.2521018 67.2655393,14.2132513 C67.2309321,13.9018408 67.1841821,13.5934654 67.124075,13.2899463 C67.1034321,13.1806795 67.0761107,13.0744478 67.051825,12.9676091 C67.0002179,12.7387557 66.9431464,12.5129375 66.877575,12.2895475 C66.8405393,12.1638906 66.8022893,12.0400548 66.7610036,11.9168261 C66.7348964,11.8366971 66.7136464,11.7547469 66.6857179,11.6752249 C69.0638964,11.2527264 71.1791821,9.82740088 70.7098607,5.94660616 C70.7098607,5.94660616 69.1027536,6.64834223 67.6941821,6.4377 C67.6941821,6.4377 68.4087893,3.46989062 64.7082536,2.50045073 C64.7082536,2.50045073 64.7762536,3.22100499 64.5801464,3.94762962 C61.3252536,0.912439003 56.1341821,-1.63954927 49.1775393,2.13379971 C36.5945036,8.95751525 42.3708607,23.3133598 42.3708607,23.3133598 L46.4915393,24.4958701 C47.2674679,25.6286032 48.1617893,26.659961 49.1787536,27.5207411 L49.1787536,32.4189317 C47.8988964,32.5257704 47.0932179,32.6684243 47.0932179,32.6684243 L47.0932179,34.9988437 C42.3417179,36.6050666 39.0807536,43.6600636 38.266575,52.1579903 L38.1633607,53.2567293 L38.0079321,53.4928672 L16.9941107,96.1858584 L20.3242893,97.4478906 L19.4803607,99.5500636 C18.9278607,99.4031604 18.342575,99.3339581 17.743325,99.3430636 C14.1763607,99.3989111 11.3294679,102.335762 11.385325,105.902111 C11.4411821,109.473316 14.3791464,112.320325 17.9461107,112.260228 C20.871325,112.212879 23.3096107,110.235756 24.063075,107.561146 L24.067325,107.547791 L24.0721821,107.543542 L26.9324321,99.9507088 L29.0434679,100.751392 L35.0226107,86.8520402 L34.1914321,95.7202601 C34.1914321,95.7202601 36.3024679,96.5822543 39.860325,97.4909903 C39.7959679,97.5255915 39.7443607,97.5899375 39.7225036,97.6676384 C39.6793964,97.8272894 39.7783607,97.9905827 39.9380393,98.0294331 C39.9471464,98.0294331 39.9987536,98.0421809 40.0928607,98.0634273 C40.6660036,100.243301 41.5706464,102.486914 42.9494679,104.658289 L42.9494679,104.661932 L36.1512893,139.511383 L7.24096786,177.087043 L9.36475357,178.697515 L6.93921786,181.587624 C6.81900357,181.122633 6.315075,180.847037 5.83664643,181.015187 L5.14268214,181.265287 C5.069825,181.290782 4.99696786,181.329026 4.93200357,181.376374 L0.998932143,184.22824 C0.202360714,184.809782 0.0511821429,185.942515 0.671682143,186.712847 L16.4859321,206.259474 C16.744575,206.578169 17.110075,206.732964 17.4767893,206.732964 C17.9200036,206.732964 18.3601821,206.504718 18.5969679,206.065222 C19.0571821,205.212333 15.9473964,197.666243 15.6668964,196.740509 L14.2971821,188.014336 C14.1854679,187.634938 13.8412179,187.411548 13.4660036,187.415797 L16.3220036,183.974498 L18.5362536,185.649316 L51.1167536,152.1657 C53.757825,147.591668 55.5926107,142.599993 56.5494679,137.405568 L56.9022179,135.828483 L59.784325,142.871339 L68.8872179,194.345744 L71.9800036,193.531706 L72.5750036,197.377899 C72.117825,197.240102 71.6138964,197.533301 71.5149321,198.028037 L71.3722536,198.747377 C71.3552536,198.829328 71.3510036,198.911278 71.3601107,198.988979 L71.782075,203.825858 C71.8682893,204.811688 72.763825,205.523137 73.7461821,205.388982 L98.6414679,201.883336 C99.305075,201.792888 99.7397893,201.224093 99.7397893,200.617055 C99.7397893,200.400949 99.6839321,200.177559 99.5637179,199.970559 C99.0682893,199.139524 90.9957179,197.924841 90.0564679,197.688096 L81.8709679,194.371847 C81.5352179,194.285647 81.2037179,194.419196 81.0009321,194.668688 L80.4623964,191.291735 L83.2758964,190.551149 L77.3003964,140.329671 L68.8999679,98.5120284 L68.9042179,98.5120284 C69.0638964,98.4768202 69.1671107,98.3177762 69.1325036,98.1587323 C69.8179679,97.9990812 70.507075,97.8272894 71.2004321,97.6324302 L70.5501821,88.2002718 L86.4457893,102.969509 L88.9921464,100.484295 L90.5470393,102.142723 C90.1766821,102.582219 89.8664321,103.076955 89.6253964,103.620254 C88.1688607,106.880656 89.6332893,110.700747 92.8954679,112.152175 C96.151575,113.60846 99.9729321,112.143677 101.424611,108.883275 C102.617646,106.217163 101.851432,103.167404 99.7397893,101.359037" id="Fill-5" fill="#232846" opacity="0.400000006" mask="url(#mask-2)"></path>
                    </g>
                    <path d="M163.351,90.525 C163.401,90.56 163.451,90.595 163.5,90.631 L163.649,90.369 L163.351,90.525 Z" id="Fill-8" fill="#232846"></path>
                    <path d="M144.1665,137.608245 C144.3645,137.679245 144.5705,137.757245 144.7765,137.828245 L144.8335,137.175245 C144.5705,137.147245 144.3085,137.289245 144.1875,137.545245 C144.1805,137.566245 144.1665,137.587245 144.1665,137.608245" id="Fill-10" fill="#232846"></path>
                    <path d="M173.4965,86.4505 C173.5035,86.4855 173.5035,86.5135 173.5035,86.5495 L173.5035,86.4505 L173.4965,86.4505 Z" id="Fill-12" fill="#232846"></path>
                    <path d="M163.4185,91.5495 L163.5815,91.5285 C163.5465,91.5005 163.5105,91.4795 163.4685,91.4505 L163.4185,91.5495 Z" id="Fill-16" fill="#232846"></path>
                    <path d="M144.512367,138.921524 C144.590367,138.948176 144.661367,138.974088 144.740367,139 L144.796367,138.485461 L144.853367,138.002757 C144.590367,137.981287 144.327367,138.086416 144.207367,138.275944 C144.200367,138.291491 144.186367,138.307038 144.186367,138.322586 C144.073367,138.554313 144.207367,138.811953 144.512367,138.921524" id="Fill-18" fill="#232846"></path>
                    <g id="Group-22" transform="translate(0.000000, 64.000000)">
                        <mask id="mask-4" fill="white">
                            <use xlink:href="#path-3"></use>
                        </mask>
                        <g id="Clip-21"></g>
                        <path d="M94.7653439,108.238423 L92.9621592,102.158172 C92.7001529,101.271456 91.9098981,100.646751 90.9871274,100.595198 L74.7875096,49.9056124 C73.0623822,44.509503 69.0094522,40.171145 63.7499618,38.0932456 L55.3131146,34.7538077 L55.321586,34.909074 L55.3179554,34.9042219 C55.3131146,34.8957308 55.3131146,34.8908787 55.3131146,34.8908787 L52.7329873,34.0047692 L52.7329873,29.5766479 C56.2921592,28.4364112 58.868051,25.0921213 58.868051,21.1504201 L58.868051,17.5356272 C60.3063631,15.9223136 63.080121,11.368645 55.9660127,5.30113018 C51.6081146,1.58262426 45.8463949,2.64583432 41.5792611,6.11870414 C40.0804395,3.4985858 35.4012357,-3.15906213 28.7330828,2.04357101 C22.8642611,6.61786095 26.3544522,14.8760858 36.7881146,14.4242367 C36.701586,16.5075947 37.2643248,18.4738964 37.8821274,19.9713669 C37.7792611,20.2637041 37.7272229,20.5742367 37.7272229,20.8962929 C37.7272229,22.5059675 39.0245478,23.805716 40.6256306,23.805716 C40.9560127,23.805716 41.274293,23.7499172 41.565949,23.6462041 C42.072414,25.376574 43.0901847,26.8825355 44.4425732,27.9972988 L44.4425732,33.3121361 L39.5437197,34.7538077 L31.1074777,38.0932456 C25.8479873,40.171145 21.7950573,44.509503 20.0693248,49.9056124 L3.8703121,100.595198 C2.9475414,100.646751 2.15728662,101.271456 1.89588535,102.158172 L0.0920955414,108.238423 C-0.337522293,109.688586 0.791585987,111.126012 2.29887898,111.053231 L6.20598089,110.858541 C5.92279618,111.749503 5.86228662,112.722343 6.07709554,113.699429 C6.72575796,116.63008 9.62356051,118.480538 12.5473822,117.830361 C15.4712038,117.18079 17.3173503,114.276219 16.6686879,111.345568 C16.5918408,111.001071 16.4841338,110.669917 16.3467771,110.355139 L18.7254076,110.23505 L17.0638153,128.205908 L31.6780828,128.205908 L31.6308854,137.092476 L31.1244204,192.033689 L31.1244204,196.823896 L21.9493567,202.676101 C21.4471274,202.998763 21.1463949,203.549473 21.1463949,204.143852 C21.1463949,204.621175 21.5288153,205.000243 21.9965541,205.000243 C22.0183376,205.000243 22.0437516,204.995391 22.065535,204.995391 L39.767,203.605879 C40.2093248,203.571914 40.552414,203.205583 40.552414,202.757979 L40.5875096,192.033689 L44.5756943,137.092476 L47.911586,104.799518 L51.9215541,137.092476 L52.7329873,192.033689 L52.7674777,202.757979 C52.7674777,203.205583 53.1105669,203.571914 53.5534968,203.605879 L71.2549618,204.995391 C71.2761401,204.995391 71.3021592,205.000243 71.3233376,205.000243 C71.7910764,205.000243 72.1734968,204.621175 72.1734968,204.143852 C72.1734968,203.549473 71.8727643,202.998763 71.370535,202.676101 L62.1960764,196.823896 L62.1960764,192.033689 L64.8663631,137.092476 L64.6430828,128.205908 L77.7930191,128.205908 L76.4194522,110.252033 L78.5106624,110.355139 C78.3727006,110.669917 78.2655987,111.001071 78.1881465,111.345568 C77.5400892,114.276219 79.3862357,117.18079 82.3100573,117.830361 C85.2381146,118.480538 88.1316815,116.63008 88.7797389,113.699429 C88.9951529,112.722343 88.9346433,111.749503 88.6514586,110.858541 L92.5585605,111.053231 C94.0652484,111.126012 95.1943567,109.688586 94.7653439,108.238423" id="Fill-20" fill="#232846" opacity="0.900000036" mask="url(#mask-4)"></path>
                    </g>
                </g>
                <path d="M215.53663,0.107099738 C215.150087,0.131392892 214.763545,0.204210224 214.377002,0.301258579 L21.1056226,68.6451706 C19.2453933,69.3004644 17.7958271,70.829442 17.2401951,72.7225062 C-7.6432631,154.635791 -6.14533261,248.894472 25.357593,331.733506 C56.861137,414.566328 118.801986,486.141043 214.37391,521.617746 C215.750991,522.127418 217.248798,522.127418 218.62588,521.617746 C314.197804,486.135451 376.1436,414.566328 407.642196,331.733506 C439.145741,248.900685 440.643053,154.635791 415.759594,72.7225062 C415.203962,70.829442 413.754396,69.3004644 411.894167,68.6451706 L218.622788,0.301258579 C217.632249,-0.0142417712 216.569287,-0.0870591028 215.530445,0.107099738 L215.53663,0.107099738 Z" id="Fill-1-Copy-2" stroke="#7A85F5" stroke-width="2" fill="#FFFFFF" opacity="0.400000006"></path>
                <path d="M215.776916,65.0804274 C215.486786,65.0986705 215.196656,65.1533533 214.906526,65.2262325 L69.8414027,116.54963 C68.4451567,117.041728 67.357145,118.189926 66.9401002,119.611537 C48.2631397,181.124962 49.3874524,251.909259 73.0328354,314.117882 C96.6786825,376.32184 143.170082,430.071435 214.904205,456.712944 C215.937811,457.095685 217.062031,457.095685 218.095637,456.712944 C289.82976,430.067235 336.324873,376.32184 359.967007,314.117882 C383.612854,251.913924 384.736702,181.124962 366.059742,119.611537 C365.642697,118.189926 364.554685,117.041728 363.158439,116.54963 L218.093316,65.2262325 C217.34984,64.989305 216.552005,64.9346223 215.772274,65.0804274 L215.776916,65.0804274 Z" id="Fill-1" stroke="#7A85F5" stroke-width="3" fill-opacity="0.5" fill="#FFFFFF" opacity="0.5"></path>
                <path d="M215.923758,105.064014 C215.692547,105.078534 215.461335,105.122057 215.230124,105.180063 L99.6243794,146.029297 C98.5116787,146.420967 97.6446171,147.334839 97.3122645,148.466326 C82.4281636,197.42599 83.3241544,253.764512 102.167706,303.277498 C121.011627,352.786771 158.061696,395.56706 215.228274,416.771527 C216.051979,417.076158 216.947895,417.076158 217.7716,416.771527 C274.938178,395.563718 311.991207,352.786771 330.832168,303.277498 C349.67609,253.768226 350.57171,197.42599 335.68761,148.466326 C335.355257,147.334839 334.488195,146.420967 333.375495,146.029297 L217.769751,105.180063 C217.177257,104.991488 216.541444,104.947965 215.920059,105.064014 L215.923758,105.064014 Z" id="Fill-1-Copy" stroke="#7A85F5" stroke-width="2" fill="#FFFFFF" opacity="0.400000006"></path>
                <g transform="translate(211.500000, 251.000000) scale(-1, 1) translate(-211.500000, -251.000000) translate(163.000000, 159.000000)">
                    <path d="M96.1871818,150.226109 L92.3780704,148.182822 C92.3156953,148.148812 92.2475055,148.123835 92.1766727,148.110018 L91.5381206,147.976102 C91.1384969,147.891607 90.7663606,148.139778 90.6638117,148.50539 L85.3571686,145.076707 L85.9666476,143.985183 L61.7471267,122.602675 L55.7131263,90.7268659 C56.8025766,90.7619392 57.9496445,90.7587508 59.1649023,90.7087978 L57.7149449,81.6194918 L60.1465176,81.5679447 L56.1809397,46.9580101 C55.8981373,42.8092606 51.8939714,34.1142638 47.6535201,30.8678553 L46.0893846,24.3915122 C45.4571757,24.9091095 44.7562485,25.4463691 44.0199048,25.9884115 L42.7618303,21.7450702 C43.2270007,21.5293161 43.521961,21.3332243 43.521961,21.3332243 L42.8886949,19.3871861 L47.8348309,15.6460311 C47.8348309,15.6460311 48.0684733,1.82076307 35.4560116,0.142026066 C22.84355,-1.53617952 21.5870612,12.2120335 21.5870612,12.2120335 C22.1812107,12.6637354 23.0396616,12.7822408 23.9890321,12.7104999 C23.885426,14.0996162 24.0625079,15.52912 24.5667949,16.9192992 L24.5588659,16.9219563 L24.615955,17.0712836 L24.615955,17.0723465 L24.6164836,17.0728779 L25.572726,19.5859349 L24.7977944,22.9008958 C24.6963026,23.5083021 25.305253,23.9711637 25.9025741,23.7410614 L27.0739578,23.5284958 L27.3636321,24.2884179 C28.5144003,27.3116325 31.6389712,28.9861182 34.6948237,28.4042198 L35.1425502,30.1360982 L35.1430788,30.1360982 L35.5104577,31.5719789 C35.5120435,31.5969554 35.516801,31.6203376 35.5189154,31.6447827 C34.1218183,32.5083305 33.1994065,33.0524985 33.1994065,33.0524985 L34.3607467,35.3721209 C33.3606303,37.6285049 32.80084,40.6554394 32.5222664,44.6357307 C32.5222664,44.6357307 31.9793913,47.3358455 31.2282468,51.462807 L16.9031122,46.6301276 L13.5919446,44.844045 C13.5263979,44.6575186 13.4497505,44.4693981 13.362531,44.2812775 L13.7991569,43.9337327 C14.1157899,43.6818424 14.2289109,43.2492714 14.0756161,42.8719674 L8.46661233,29.1189717 C8.24354197,28.5710838 7.56851625,28.3792433 7.09224517,28.7273195 L2.39296671,32.1751339 C2.05624675,32.42171 1.9304393,32.8665036 2.08637711,33.2549673 L4.27902133,38.7008985 C2.59436436,40.9843847 1.87916483,44.3280419 3.59659517,46.3686719 C4.97677696,48.0086157 7.45539526,49.2972948 9.68662748,49.3748812 L11.6609588,50.5641859 L11.0393219,51.648802 L13.9508659,53.2563295 C13.9508659,53.2563295 18.4207308,59.074782 29.1878402,63.5174035 C28.2014675,69.8640815 27.2917421,76.7342024 26.9444501,82.2811023 L31.2071027,82.1896991 L16.7656755,165.856059 C16.7413598,165.891133 16.7212729,165.929395 16.7107008,165.972439 C16.6964286,166.030895 16.7022432,166.088287 16.7159869,166.142492 L16.0927642,169.751856 L18.1358139,170.371485 L17.1547272,174.014328 C17.0373773,173.66944 16.7001288,173.440932 16.3269353,173.500982 L2.33059158,175.748332 C1.48059836,175.884905 0.719410395,176.356801 0.215651973,177.056673 C-0.258504696,177.716158 0.0882587093,178.647727 0.874819604,178.833722 L22.6358091,183.959211 C23.4921456,184.160085 24.3410816,183.59838 24.4964908,182.728456 L25.2603218,178.456949 C25.2735368,178.386803 25.2761798,178.313468 25.2687794,178.24279 L25.1990038,177.58915 C25.1546012,177.182087 24.8051948,176.902563 24.428301,176.91638 L25.5600395,172.623086 L28.0983899,173.393105 L39.4929509,124.548713 L43.8190358,114.905143 L45.3789425,121.041912 C46.54134,125.61473 48.473383,129.954789 51.0915524,133.871842 L80.3090124,154.110215 L81.5575721,151.875618 L85.6827879,154.573076 C85.3196378,154.57839 84.9993046,154.830281 84.9422155,155.208116 L82.7696582,169.2874 C82.6375075,170.141914 82.8500058,171.015027 83.357993,171.713305 C83.8369071,172.36907 84.8248657,172.323368 85.2424618,171.627747 L96.7792169,152.384713 C97.2332867,151.627448 96.9631707,150.641675 96.1871818,150.226109" id="Fill-1" fill="#7a86f5"></path>
                </g>
            </g>
        </g>
    </g>
</svg>