<?xml version="1.0" encoding="UTF-8"?>
<svg width="666px" height="385px" viewBox="0 0 666 385" version="1.1" xmlns="http://www.w3.org/2000/svg" xmlns:xlink="http://www.w3.org/1999/xlink">
    <title>60889FBB-5B1B-4103-814B-EBA54600BAE3</title>
    <defs>
        <filter id="filter-1">
            <feColorMatrix in="SourceGraphic" type="matrix" values="0 0 0 0 0.721326 0 0 0 0 0.721326 0 0 0 0 0.721326 0 0 0 1.000000 0"></feColorMatrix>
        </filter>
    </defs>
    <g id="Page-1" stroke="none" stroke-width="1" fill="none" fill-rule="evenodd">
        <g id="SS_V2" transform="translate(-636.000000, -850.000000)">
            <g id="about" transform="translate(636.000000, 850.000000)">
                <circle id="Oval-Copy-4" fill="#FFFFFF" cx="479" cy="196" r="187"></circle>
                <circle id="Oval-Copy-5" fill="#D8D8D8" opacity="0.200000003" cx="371" cy="156" r="156"></circle>
                <circle id="Oval-Copy-3" fill="#D8D8D8" opacity="0.200000003" cx="156" cy="156" r="156"></circle>
                <g filter="url(#filter-1)" id="Group-3" opacity="0.699999988">
                    <g transform="translate(110.000000, 61.000000)">
                        <path d="M78.8954199,56.8047131 L76.5268852,53.0497035 C76.287507,52.6694493 75.7461009,52.6100346 75.4263066,52.9281318 L67.3846962,60.9216955 C67.3566441,60.9500317 67.3398128,60.9847665 67.316436,61.016759 L65.3565272,60.4591748 L66.0353888,58.8440088 L52.3468847,53.3449489 C53.022006,51.8641515 54.6415489,48.6365617 55.1810849,46.0972684 C55.6149578,44.0579727 55.0847725,41.9217854 53.7700627,40.4007688 L50.6170034,36.2490517 C48.7113288,31.3139745 46.4671584,29.5845494 45.1374875,28.973035 L45.1374875,24.9127251 C48.2522089,23.9364957 50.5094702,21.0855037 50.5094702,17.7162327 L50.5094702,15.0178908 C50.5094702,15.0178908 50.6450555,14.2116789 50.611393,13.0791431 C51.112591,10.84515 51.23041,7.32962735 47.9688824,5.08557947 C44.0434544,2.38632351 39.3933465,2.4164879 35.7961284,4.726349 C35.5184123,4.15596778 31.9557919,-2.85313981 26.4716006,1.31868688 C22.3890807,4.42470509 24.105871,11.336921 31.2572939,11.1924976 C30.969292,13.2646998 31.5125682,15.2528074 32.1343904,16.7180656 C32.0502341,16.9657792 31.9931947,17.2262898 31.9931947,17.5014256 C31.9931947,18.313122 32.3962103,19.0260985 33.011487,19.4794784 C31.7351151,19.6750899 30.3175475,20.1476654 30.0557277,21.2847715 C30.0557277,21.2847715 33.1620335,22.2847668 34.63103,20.382582 C34.2504561,21.5443681 33.8698822,23.4428966 35.0452664,24.3569691 C35.0452664,24.3569691 36.2281312,23.1184009 36.1505203,21.593728 C36.6087051,22.3414393 37.1893842,23.0096263 37.8757263,23.560812 L37.8757263,29.1695606 L37.9748438,29.2180064 L36.9004472,29.3222107 C35.5651659,29.8148957 34.4786134,30.6000839 33.5828154,31.5909385 L33.5136201,31.5488912 L33.2078519,32.0333496 C32.7534074,32.6055589 32.3588075,33.2390111 32.0156364,33.9236514 L4.69753779,77.2333184 L6.28622339,78.1903523 L5.25764531,79.598938 C2.88911052,79.3484821 0.65148567,80.8475609 0.11662507,83.1738753 C-0.458443582,85.6766057 1.14894343,88.1610547 3.71010284,88.7232092 C6.26939211,89.2862779 8.8118501,87.7140732 9.38691875,85.2113428 C9.56551731,84.4325531 9.51221826,83.6629041 9.30556758,82.9444432 L10.7427717,80.8768113 L12.4885492,81.9289087 L30.7355243,53.0012576 C31.7454009,60.0688659 33.5360618,65.9289844 33.5360618,65.9289844 C31.0394223,72.698605 32.1596374,78.9773687 33.5332566,83.0504756 L25.2279562,118.235867 L8.99512401,149.287822 L10.2499893,150.194582 L5.70647938,156.826178 C5.51104955,156.558354 5.12206002,156.493455 4.85182451,156.719231 L4.46189991,157.048297 C4.41982171,157.083946 4.3814838,157.125079 4.35156153,157.171697 L2.49918592,159.963274 C2.12235232,160.532741 2.31030159,161.294164 2.91061715,161.633285 L18.1765859,170.237449 C18.7292129,170.549147 19.4277109,170.210026 19.508127,169.592114 C19.5950886,168.933067 19.4099446,168.268537 18.993838,167.744773 L12.6260046,159.348103 C12.4614321,159.140609 12.1893265,159.082108 11.9518184,159.167117 L15.4658152,153.965131 L16.7160051,154.869148 L38.465756,122.308973 L41.1082666,116.629841 L49.4285282,160.551937 L50.953629,160.551937 L51.4220995,165.597617 C51.1359678,165.495241 50.8012124,165.616812 50.6768479,165.913886 L50.4832883,166.380063 C50.4627167,166.431251 50.4477556,166.485181 50.4421451,166.540026 L50.098039,169.850796 C50.0279087,170.525381 50.5506134,171.119529 51.2425659,171.152435 L68.8434069,172 C69.4801903,172.029945 69.9439855,171.416602 69.727049,170.830682 C69.4960865,170.20637 69.0210704,169.698146 68.4067288,169.416612 L58.8213162,164.785921 C58.5052622,164.641497 58.1424546,164.795975 58.0124798,165.112244 C57.9993888,165.144237 57.9732068,165.178972 57.9545054,165.211878 L57.4907102,160.551937 L59.1345649,160.551937 L52.6872506,65.9289844 L52.6367567,65.9289844 C52.6096397,65.2580552 52.5675615,64.2452629 52.5180027,63.0880472 L62.5559897,67.1209349 L63.3882028,65.141968 L68.8817448,66.8412287 C69.8401926,67.7306212 71.1586427,68.2397596 72.5771453,68.1108753 C75.1897337,67.8741306 77.1113045,65.6118012 76.8691211,63.0578828 C76.7802894,62.1237007 76.4100013,61.2836682 75.8545691,60.600856 L78.8000427,57.6456598 C79.0253948,57.4198839 79.0646678,57.0725364 78.8954199,56.8047131" id="Fill-1" fill="#292C47"></path>
                    </g>
                </g>
                <path d="M384.273193,97.6444068 L384.879338,92.8703883 C383.178867,92.6030287 381.693451,92.7467803 380.397681,93.1551447 L379.777019,90.2260912 L383.102645,89.5622701 C385.655166,89.0531879 387.744004,86.4876337 387.744004,83.8616489 C387.744004,82.5898591 386.867455,81.4874583 385.636111,81.2127737 L383.611698,80.7604597 L381.213435,75.2869111 C380.784234,73.7862175 379.738,71 375.2264,71 L365.927348,72.392651 C364.52632,72.6023269 363.187903,73.2231141 362.233316,74.2788186 C358.62821,78.2690703 361.753301,84.3679842 361.753301,84.3679842 L363.541789,84.0429407 C363.556308,84.1161899 363.56266,84.1894392 363.577178,84.263604 L364.137045,86.9005762 L363.159773,89.3297038 C362.975571,89.8863979 363.480993,90.4137923 364.075341,90.2846906 L364.87204,90.2654627 C365.689609,93.0773174 368.802904,94.768459 372.032346,94.0707601 C372.239234,94.0258949 372.43251,93.9535613 372.626694,93.8848902 L373.788168,99.3611856 C372.990562,100.925972 372.654823,102.15015 372.654823,102.15015 L372.660268,102.151981 C371.771922,103.306572 370.961612,104.694645 370.330968,106.382124 C369.219401,109.356043 367.794781,116.008904 366.416438,123.365873 L354.353441,119.882873 L353.880685,121.047535 C353.205578,120.435904 352.01416,119.543179 350.869926,119.583466 L352.049548,118.642214 C352.293639,118.447188 352.38075,118.113904 352.262788,117.823654 L347.953538,107.217165 C347.782039,106.795067 347.263912,106.646737 346.898229,106.915012 L343.286771,109.573959 C343.028162,109.764407 342.93107,110.106847 343.050847,110.406254 L345.88194,117.462901 C345.854718,117.429023 345.830218,117.401555 345.802996,117.366762 C345.802996,117.366762 343.194216,116.373319 344.5898,119.02311 C345.888292,121.490693 348.331924,124.53603 352.704692,123.939049 L352.31451,124.897698 C355.103862,128.633408 360.193478,131.220022 364.700541,132.965185 C362.918404,143.356503 361.530987,152.639012 361.530987,152.639012 C361.530987,152.639012 362.383945,153.526243 364.991817,154.567298 L364.991817,165.627931 C364.991817,165.627931 367.319302,166.03538 369.824638,165.024541 L368.689479,186.508539 C368.659534,187.073474 368.707627,187.641156 368.830126,188.192356 L376.713631,223.503978 L377.434108,228.676289 L377.099276,228.676289 C377.099276,228.676289 374.171092,232.411084 364.961873,233.643502 C363.988231,233.774435 363.191532,234.448328 362.856701,235.350209 C362.753257,235.633134 362.974663,235.934372 363.274106,235.934372 L367.453598,235.934372 C366.827491,236.227369 366.333864,236.75751 366.091588,237.415837 C365.987237,237.698763 366.20955,238 366.508085,238 L386.529901,238 C386.904658,238 387.23223,237.739965 387.309359,237.370057 C387.486302,236.515788 387.603357,234.902473 386.577993,233.214079 C386.577993,233.214079 386.10433,232.736127 386.024478,230.741917 L385.922849,230.741917 L385.766776,225.569606 L385.766776,210.093875 C385.766776,210.093875 389.119625,197.556354 384.901115,188.415766 C384.901115,188.415766 386.153329,180.689804 386.371106,171.993289 C387.434581,172.604005 388.635073,173.138724 390.000712,173.564485 L390.956206,157.825057 C392.45977,157.809492 394.029575,157.774698 395.682861,157.712436 C395.682861,157.712436 398.985803,105.024267 384.273193,97.6444068" id="Fill-7" fill="#292C47" opacity="0.300000012"></path>
                <path d="M535.344804,185.098021 L535.344804,185.098021 L529.701246,180.908604 L530.863476,179.336772 L528.334987,177.645086 C528.432447,177.494124 528.404211,177.292842 528.259388,177.182137 C528.107278,177.066857 527.89232,177.097049 527.777554,177.248011 L527.765713,177.26448 L505.987555,162.702619 L502.526367,157.578155 C502.598323,157.46379 502.598323,157.313743 502.516348,157.196633 L502.105559,156.609255 L501.782212,151.897419 C501.855079,149.684228 499.900418,144.757386 496.69973,140.411518 L498.494083,136.52128 C497.273559,135.205626 495.970148,134.18549 494.65854,133.38951 L495.133087,131.977789 C495.235101,132.02079 495.325275,132.07843 495.432753,132.114112 C498.770978,133.245868 502.389741,131.444391 503.516449,128.091211 L503.76784,127.341892 L504.914587,127.502003 C505.50481,127.70237 506.07955,127.228442 505.955675,126.642893 L505.074894,123.451654 L505.901936,120.98686 C505.903758,120.982286 505.905579,120.977711 505.907401,120.972221 C505.909223,120.966732 505.910133,120.961242 505.911955,120.956668 L505.955675,120.824004 L505.95021,120.82126 C507.573325,115.719668 504.833522,110.236555 499.763793,108.517421 C494.9409,106.884289 489.738189,109.242952 487.706107,113.82121 C486.0921,115.12497 485.192192,117.297904 485.880786,119.647418 C486.306148,121.095736 487.060322,122.787422 487.968429,125.015251 L486.053845,130.716115 C484.438017,130.606325 483.391463,130.731669 483.391463,130.731669 L483.391463,132.752726 C479.293599,134.145234 476.479107,140.257812 475.772296,147.626574 L475.683944,148.577176 L475.54914,148.784862 L457.41707,185.79519 L460.291677,186.890349 L459.557541,188.718358 C459.081173,188.593014 458.581122,188.52531 458.063765,188.532629 C454.984219,188.58112 452.526776,191.128256 452.575961,194.221599 C452.624236,197.314942 455.160011,199.783396 458.240468,199.734905 C460.762581,199.695563 462.865708,197.977344 463.517869,195.658023 L465.989886,189.061453 L467.812474,189.754962 L472.973288,177.701811 L472.257368,185.394455 C472.257368,185.394455 474.03988,186.123646 477.042916,186.902243 C476.998285,186.946159 476.96094,186.997394 476.945456,187.061439 C476.899003,187.246252 477.010126,187.433811 477.194115,187.480472 C477.202313,187.482302 477.274269,187.499685 477.376283,187.523473 C477.873601,189.381675 478.649636,191.292027 479.812777,193.141994 L473.946064,223.358129 L451.094937,253.200976 C450.769767,253.062823 450.706009,253.140592 450.627677,253.243977 C450.512,253.394939 450.541147,253.611775 450.691435,253.72797 L449.000918,255.933841 L450.833526,257.330008 L448.723112,259.854272 C448.623831,259.447132 448.202113,259.192785 447.788592,259.341917 L447.191081,259.555093 C447.126412,259.579796 447.063564,259.611818 447.008003,259.652989 L443.615128,262.126017 C442.923801,262.630138 442.795373,263.612761 443.330946,264.278823 L451.298054,276.013582 L458.542867,280.590009 C459.037452,281.203005 459.992922,281.114258 460.366366,280.419834 C460.763492,279.680579 456.511696,275.617421 456.272145,274.813207 L455.090787,265.407834 C454.991506,265.077548 454.687286,264.889989 454.363027,264.900053 L456.837776,261.905521 L458.745984,263.360243 L461.156974,260.870747 C461.171548,260.881726 461.187943,260.892705 461.202516,260.902769 C461.262632,260.945771 461.330945,260.965899 461.399258,260.965899 C461.507647,260.965899 461.614216,260.914663 461.680707,260.819512 C461.779077,260.678614 461.752663,260.4938 461.634254,260.377606 L486.863581,234.33076 C489.140678,230.364583 490.725538,226.036099 491.548936,221.532864 L491.92238,220.336149 L494.339747,226.272148 L502.196643,270.898266 L504.86358,270.191033 L505.380936,273.547873 C504.982899,273.426189 504.54934,273.658578 504.464632,274.090421 L504.339847,274.715311 C504.326185,274.78393 504.32163,274.853463 504.328006,274.922997 L504.695074,279.116989 C504.769763,279.972439 505.541244,280.589094 506.387413,280.46924 L527.875014,277.431707 C528.651959,277.321917 529.067302,276.452743 528.667444,275.773873 C528.24026,275.052001 521.275075,274.921168 520.465339,274.714396 L513.399051,270.920224 C513.105761,270.846116 512.825223,270.9678 512.653074,271.19104 L512.183081,268.250489 L514.612288,267.606385 L509.455119,224.066277 L502.223058,187.899505 C502.224879,187.899505 502.226701,187.899505 502.229433,187.89859 C502.414334,187.858334 502.531832,187.67352 502.491755,187.487791 C502.491755,187.486876 502.490844,187.485961 502.490844,187.485046 C503.055564,187.351468 503.623017,187.208741 504.192291,187.049545 L503.337014,174.58102 C503.439938,174.573701 503.538309,174.52521 503.599335,174.433718 L503.599335,174.431888 L521.050098,186.161158 C520.948995,186.311204 520.979052,186.514317 521.124787,186.625022 C521.186724,186.672598 521.259591,186.696386 521.331547,186.696386 C521.435383,186.696386 521.538308,186.64881 521.60571,186.559148 L521.617551,186.542679 L524.236212,188.30207 L526.067909,185.824467 L527.618157,187.031246 C527.368587,187.458514 527.166381,187.923293 527.033399,188.424669 C526.240058,191.414626 528.009818,194.483266 530.985529,195.280161 C533.961239,196.077056 537.017104,194.299367 537.810445,191.310325 C538.460784,188.861085 537.388726,186.36061 535.344804,185.098021" id="Fill-11" fill="#292C47" opacity="0.400000006" transform="translate(490.500000, 194.500000) scale(-1, 1) translate(-490.500000, -194.500000) "></path>
                <circle id="Oval-Copy-6" stroke="#7A85F5" stroke-width="3" fill-opacity="0.5" fill="#FFFFFF" cx="264" cy="196" r="187"></circle>
                <circle id="Oval-Copy-6" stroke="#7A85F5" stroke-width="2" fill="#FFFFFF" opacity="0.400000006" cx="264" cy="196" r="146"></circle>
                <circle id="Oval-Copy-6" stroke="#7A85F5" stroke-width="2" fill="#FFFFFF" opacity="0.400000006" cx="264" cy="196" r="106"></circle>
                <path d="M292.249948,166.654932 L283.934951,152.690408 C282.717342,150.645508 280.948933,148.982263 278.831591,147.88922 L270.271793,143.475152 C270.397847,143.224663 270.386886,142.915879 270.206939,142.677231 C269.953005,142.339299 269.471624,142.271895 269.133654,142.524205 C269.031349,142.600718 268.931784,142.659014 268.82948,142.730972 L268.691551,142.659925 L268.758232,142.780159 C268.734483,142.796555 268.70982,142.81204 268.685157,142.829346 L266.524884,142.576125 L266.524884,137.569992 C266.566902,137.483459 266.604353,137.403303 266.636323,137.328612 C267.566199,136.556195 268.297861,135.558794 268.757318,134.421119 C269.07428,134.566858 269.423212,134.653391 269.794067,134.653391 C271.166959,134.653391 272.280436,133.543042 272.280436,132.174918 C272.280436,131.889816 272.221977,131.62111 272.134287,131.366067 C273.279734,128.766448 274.498256,124.545484 272.375434,121.26909 C280.356113,117.284951 279.433544,109.814919 273.304397,109.07165 C266.886604,108.292858 266.076387,114.060477 266.044417,116.782152 C262.866577,115.969657 259.355334,116.586315 256.651567,118.880793 C250.555303,124.054526 252.934801,127.933914 254.167024,129.307504 L254.167024,131.675762 C254.167024,135.002253 256.38119,137.811372 259.421101,138.72224 L259.421101,142.735527 C258.726891,143.097141 257.972394,143.500656 257.522984,143.772095 C257.178619,143.58901 256.747478,143.684652 256.52734,144.016208 C256.417728,144.182897 256.387584,144.37509 256.415901,144.556353 L248.662666,149.878557 C248.662666,149.878557 245.672994,151.691185 243.41133,157.453339 C243.41133,157.453339 236.921376,173.848061 236.521291,200.85531 L236.135822,200.829806 C235.574059,200.787906 235.089939,201.130393 235.0397,201.604044 L234.59029,205.919739 C234.537311,206.429825 235.005903,206.88617 235.610597,206.912586 L238.43311,207.027355 L238.182829,208.498408 C236.096544,209.648834 234.938309,212.074477 235.510119,214.501942 C236.114813,217.067858 238.444985,218.77938 240.988901,218.701045 C240.368678,221.804374 239.825185,224.930475 239.436062,227.90446 C237.461216,243.005748 237.899664,263.798143 237.899664,263.798143 C237.899664,263.798143 239.706438,264.156114 242.48602,264.385653 L242.024736,271.345599 L241.630132,273.69655 L233.622963,278.209903 C233.235666,278.455838 233,278.883035 233,279.341202 C233,279.725588 233.327923,280.027997 233.711566,279.997938 L248.328349,278.926757 C248.670887,278.900342 248.935783,278.61524 248.936697,278.271842 L249.672925,271.345599 L250.670396,264.440305 C252.230543,264.322803 253.844582,264.12059 255.458621,263.798143 C255.458621,263.798143 256.807764,223.308218 261.730265,211.4897 C261.730265,211.4897 268.188249,254.631162 274.553976,264.576935 C274.553976,264.576935 276.516034,264.749089 279.39792,264.482205 L281.25676,270.804543 L281.892511,273.279372 L273.949282,278.134301 C273.614051,278.446729 273.462421,278.910361 273.54737,279.361241 C273.619532,279.738341 273.997694,279.975166 274.369462,279.874971 L289.303207,278.065986 C289.635697,277.97581 289.843047,277.646987 289.78002,277.309054 L288.462847,269.450081 L287.102743,262.84082 C288.473808,262.359881 289.863143,261.756886 291.215026,260.991757 C291.215026,260.991757 284.350564,221.934628 279.831802,196.017688 C280.786341,195.827316 281.736313,195.617817 282.676238,195.383724 C284.176098,195.009357 285.12607,193.531928 284.868481,192.010778 L284.089321,182.482183 C284.128599,182.463965 284.167877,182.448481 284.205328,182.430263 C284.364265,182.355572 284.431859,182.173398 284.372486,182.012175 C288.446405,180.526548 290.826816,178.914311 290.826816,178.914311 C293.040982,177.94879 293.796393,175.749043 293.965378,173.651313 C294.16268,171.20472 293.506834,168.764504 292.249948,166.654932" id="Fill-9" fill="#7A85F5"></path>
            </g>
        </g>
    </g>
</svg>