<?xml version="1.0" encoding="UTF-8"?>
<svg width="232px" height="64px" viewBox="0 0 232 64" version="1.1" xmlns="http://www.w3.org/2000/svg" xmlns:xlink="http://www.w3.org/1999/xlink">
    <title>E1650DFC-1779-437C-B491-3843EE32FCB6</title>
    <defs>
        <polygon id="path-1" points="0 0.0413333333 45.7447215 0.0413333333 45.7447215 45.786 0 45.786"></polygon>
        <polygon id="path-3" points="0.402533333 0.0351333333 14.8986667 0.0351333333 14.8986667 14.5318 0.402533333 14.5318"></polygon>
    </defs>
    <g id="Page-1" stroke="none" stroke-width="1" fill="none" fill-rule="evenodd">
        <g id="SS_V2" transform="translate(-80.000000, -56.000000)">
            <g id="Group-35" transform="translate(80.000000, 56.000000)">
                <path d="M17.2244667,53.0873333 C17.2244667,56.6866667 14.3064667,59.6046667 10.7071333,59.6046667 C7.10713333,59.6046667 4.18913333,56.6866667 4.18913333,53.0873333 C4.18913333,49.488 7.10713333,46.57 10.7071333,46.57 C14.3064667,46.57 17.2244667,49.488 17.2244667,53.0873333" id="Fill-1" fill="#7686F9"></path>
                <path d="M59.0116,11.4451333 C59.0116,15.0444667 56.0936,17.9624667 52.4942667,17.9624667 C48.8942667,17.9624667 45.9762667,15.0444667 45.9762667,11.4451333 C45.9762667,7.8458 48.8942667,4.9278 52.4942667,4.9278 C56.0936,4.9278 59.0116,7.8458 59.0116,11.4451333" id="Fill-3" fill="#7686F9"></path>
                <path d="M46.5610667,43.0646 C46.2037333,43.0646 45.8410667,42.9732667 45.5090667,42.7799333 C44.5077333,42.1979333 44.1684,40.9139333 44.7504,39.9126 C46.0917333,37.6079333 46.7997333,34.9799333 46.7997333,32.3126 C46.7997333,23.9566 40.0017333,17.1586 31.6457333,17.1586 C28.9790667,17.1586 26.3517333,17.8672667 24.0457333,19.2079333 C23.0437333,19.7899333 21.7610667,19.4512667 21.1784,18.4492667 C20.5964,17.4486 20.9357333,16.1646 21.9364,15.5826 C24.8824,13.8699333 28.2397333,12.9646 31.6457333,12.9646 C42.3144,12.9646 50.9937333,21.6439333 50.9937333,32.3126 C50.9937333,35.7192667 50.0890667,39.0772667 48.3764,42.0219333 C47.9870667,42.6912667 47.2837333,43.0646 46.5610667,43.0646" id="Fill-5" fill="#7686F9"></path>
                <path d="M31.6457333,51.6609333 C20.9777333,51.6609333 12.2984,42.9816 12.2984,32.3129333 C12.2984,28.9916 13.1577333,25.7116 14.7837333,22.8276 C15.3530667,21.8189333 16.6317333,21.4616 17.6404,22.0309333 C18.6490667,22.5996 19.0057333,23.8789333 18.4370667,24.8876 C17.1644,27.1442667 16.4924,29.7116 16.4924,32.3129333 C16.4924,40.6682667 23.2904,47.4662667 31.6457333,47.4662667 C34.2470667,47.4662667 36.8150667,46.7942667 39.0710667,45.5222667 C40.0804,44.9522667 41.3590667,45.3102667 41.9277333,46.3189333 C42.4964,47.3276 42.1397333,48.6062667 41.1317333,49.1749333 C38.2470667,50.8016 34.9670667,51.6609333 31.6457333,51.6609333" id="Fill-7" fill="#7686F9"></path>
                <g id="Group-11" transform="translate(0.000000, 0.625600)">
                    <mask id="mask-2" fill="white">
                        <use xlink:href="#path-1"></use>
                    </mask>
                    <g id="Clip-10"></g>
                    <path d="M4.6464,45.786 C3.84373333,45.786 3.07706667,45.3226667 2.72973333,44.5413333 C0.9184,40.4733333 -0.000266666667,36.1486667 -0.000266666667,31.6873333 C-0.000266666667,14.2373333 14.1964,0.0413333333 31.6457333,0.0413333333 C36.1077333,0.0413333333 40.4324,0.959333333 44.4997333,2.77066667 C45.5584,3.24133333 46.0337333,4.48066667 45.5630667,5.53866667 C45.0917333,6.59666667 43.8504,7.072 42.7944,6.602 C39.2670667,5.03133333 35.5164,4.23533333 31.6457333,4.23533333 C16.5090667,4.23533333 4.19373333,16.55 4.19373333,31.6873333 C4.19373333,35.5573333 4.9904,39.308 6.56106667,42.8353333 C7.03173333,43.8933333 6.5564,45.1333333 5.49773333,45.6046667 C5.22106667,45.728 4.93173333,45.786 4.6464,45.786" id="Fill-9" fill="#000000" mask="url(#mask-2)"></path>
                </g>
                <path d="M31.6457333,63.9588 C27.1844,63.9588 22.8590667,63.0408 18.7917333,61.2294667 C17.7330667,60.7588 17.2577333,59.5188 17.7284,58.4608 C18.1997333,57.4028 19.4390667,56.9268 20.4970667,57.3981333 C24.0244,58.9688 27.7757333,59.7648 31.6457333,59.7648 C46.7830667,59.7648 59.0977333,47.4494667 59.0977333,32.3128 C59.0977333,28.4428 58.3017333,24.6921333 56.7310667,21.1641333 C56.2597333,20.1061333 56.7357333,18.8661333 57.7937333,18.3954667 C58.8497333,17.9241333 60.0910667,18.4001333 60.5624,19.4588 C62.3737333,23.5261333 63.2924,27.8508 63.2924,32.3128 C63.2924,49.7628 49.0957333,63.9588 31.6457333,63.9588" id="Fill-12" fill="#000000"></path>
                <path d="M90.6281333,41.8526667 C87.8021333,41.8526667 85.2868,40.3833333 83.7048,38.914 L85.9654667,35.5793333 C87.3781333,37.0486667 89.5548,38.0373333 91.0521333,38.0373333 C92.5214667,38.0373333 93.6514667,37.3313333 93.6514667,36.0313333 C93.6514667,34.7026667 92.2108,34.1946667 91.3634667,33.8833333 C90.5148,33.5726667 89.0454667,33.064 88.3954667,32.7813333 C87.9154667,32.5553333 86.9261333,32.188 86.0788,31.368 C85.2301333,30.5773333 84.5528,29.4473333 84.5528,27.61 C84.5528,25.7446667 85.4568,24.2753333 86.5868,23.3426667 C87.6894667,22.41 89.4694667,21.788 91.7301333,21.788 C93.9908,21.788 96.5908,22.8626667 97.9194667,24.1906667 L95.9694667,27.384 C94.8388,26.254 93.0868,25.4053333 91.6168,25.4053333 C90.1474667,25.4053333 89.0741333,25.9713333 89.0741333,27.158 C89.0741333,28.3446667 90.1761333,28.7966667 91.0521333,29.136 C91.8994667,29.4753333 93.3408,29.9833333 93.9628,30.238 C96.4494667,31.1426667 98.2014667,32.7533333 98.2014667,35.5793333 C98.2014667,39.7893333 94.4148,41.8526667 90.6281333,41.8526667" id="Fill-14" fill="#000000"></path>
                <path d="M106.958867,35.5226 C105.574867,35.5792667 104.754867,36.1726 104.754867,37.2179333 C104.754867,38.2919333 105.630867,38.9419333 106.8742,38.9419333 C108.089533,38.9419333 108.908867,38.1506 109.1922,37.6706 L109.1922,35.3812667 L106.958867,35.5226 Z M109.361533,41.5132667 L109.276867,40.0439333 C108.682867,40.6372667 107.552867,41.8239333 105.291533,41.8239333 C102.833533,41.8239333 100.233533,40.4959333 100.233533,37.3879333 C100.233533,34.2792667 103.087533,33.2332667 105.659533,33.1199333 L109.163533,32.9792667 L109.163533,32.6686 C109.163533,31.1992667 108.117533,30.4359333 106.308867,30.4359333 C104.5282,30.4359333 102.748867,31.2272667 102.0422,31.6792667 L100.855533,28.7399333 C102.0422,28.1472667 104.2182,27.3272667 106.817533,27.3272667 C111.169533,27.3272667 113.684867,29.1359333 113.684867,33.6572667 L113.684867,41.5132667 L109.361533,41.5132667 Z" id="Fill-16" fill="#000000"></path>
                <path d="M124.9576,25.1514667 C124.9576,25.1514667 124.082267,24.8968 123.290267,24.8968 C121.962267,24.8968 121.622933,25.6601333 121.622933,26.7054667 L121.622933,27.6101333 L124.618933,27.6101333 L124.618933,31.0288 L121.622933,31.0288 L121.622933,41.5134667 L117.0736,41.5134667 L117.0736,31.0288 L115.292933,31.0288 L115.292933,27.6101333 L117.0736,27.6101333 L117.0736,26.8468 C117.0736,23.5121333 118.656267,21.6468 122.1036,21.6468 C123.884267,21.6468 125.184267,22.0148 125.184267,22.0148 L124.9576,25.1514667 Z" id="Fill-18" fill="#000000"></path>
                <path d="M132.191267,30.2660667 C130.325933,30.2660667 129.365267,31.7354 129.3086,33.0640667 L135.045267,33.0640667 C135.0166,31.7920667 134.0846,30.2660667 132.191267,30.2660667 M139.199267,35.6360667 L129.2806,35.6360667 C129.4786,37.6414 131.0046,38.5460667 132.841267,38.5460667 C134.649933,38.5460667 136.2326,37.7547333 137.023267,37.2180667 L138.803933,39.5634 C138.351267,39.9027333 136.5146,41.8240667 132.191267,41.8240667 C127.895933,41.8240667 124.759267,39.1680667 124.759267,34.5614 C124.759267,29.9554 128.149933,27.3274 132.275933,27.3274 C136.401267,27.3274 139.255933,30.0680667 139.255933,34.1380667 C139.255933,34.8160667 139.199267,35.6360667 139.199267,35.6360667" id="Fill-20" fill="#000000"></path>
                <path d="M147.222533,41.8526667 C144.396533,41.8526667 141.8812,40.3833333 140.298533,38.914 L142.559867,35.5793333 C143.972533,37.0486667 146.1492,38.0373333 147.646533,38.0373333 C149.115867,38.0373333 150.246533,37.3313333 150.246533,36.0313333 C150.246533,34.7026667 148.8052,34.1946667 147.957867,33.8833333 C147.1092,33.5726667 145.639867,33.064 144.989867,32.7813333 C144.509867,32.5553333 143.520533,32.188 142.6732,31.368 C141.824533,30.5773333 141.1472,29.4473333 141.1472,27.61 C141.1472,25.7446667 142.0512,24.2753333 143.1812,23.3426667 C144.283867,22.41 146.063867,21.788 148.324533,21.788 C150.5852,21.788 153.1852,22.8626667 154.513867,24.1906667 L152.563867,27.384 C151.4332,26.254 149.6812,25.4053333 148.2112,25.4053333 C146.741867,25.4053333 145.668533,25.9713333 145.668533,27.158 C145.668533,28.3446667 146.770533,28.7966667 147.646533,29.136 C148.493867,29.4753333 149.9352,29.9833333 150.5572,30.238 C153.043867,31.1426667 154.795867,32.7533333 154.795867,35.5793333 C154.795867,39.7893333 151.0092,41.8526667 147.222533,41.8526667" id="Fill-22" fill="#000000"></path>
                <path d="M164.628133,30.8878 C162.706133,30.8878 161.378133,32.3571333 161.378133,34.5051333 C161.378133,36.6524667 162.706133,38.1224667 164.628133,38.1224667 C166.578133,38.1224667 167.906133,36.6524667 167.906133,34.5051333 C167.906133,32.3571333 166.578133,30.8878 164.628133,30.8878 M165.928133,41.8238 C163.8648,41.8238 162.395467,41.0618 161.519467,39.7618 L161.519467,46.6284667 L156.998133,46.6284667 L156.998133,27.5818 L161.293467,27.5818 L161.265467,29.3618 L161.322133,29.3618 C162.3388,28.1471333 163.8368,27.3271333 165.956133,27.3271333 C169.969467,27.3271333 172.512133,30.4638 172.512133,34.5618 C172.512133,38.6591333 169.969467,41.8238 165.928133,41.8238" id="Fill-24" fill="#000000"></path>
                <path d="M183.926333,41.5134667 L183.926333,34.1941333 C183.926333,32.4988 183.700333,31.0288 181.807,31.0288 C179.913667,31.0288 179.320333,32.6114667 179.320333,34.6748 L179.320333,41.5134667 L174.799,41.5134667 L174.799,22.0148 L179.320333,22.0148 L179.320333,26.6488 C179.320333,28.0621333 179.292333,29.5881333 179.292333,29.5881333 C179.998333,28.3448 181.327,27.3274667 183.389667,27.3274667 C187.431,27.3274667 188.476333,29.8988 188.476333,33.2901333 L188.476333,41.5134667 L183.926333,41.5134667 Z" id="Fill-26" fill="#000000"></path>
                <path d="M197.9406,30.2660667 C196.075267,30.2660667 195.1146,31.7354 195.057933,33.0640667 L200.7946,33.0640667 C200.765933,31.7920667 199.833933,30.2660667 197.9406,30.2660667 M204.9486,35.6360667 L195.029933,35.6360667 C195.227933,37.6414 196.753933,38.5460667 198.5906,38.5460667 C200.399267,38.5460667 201.981933,37.7547333 202.7726,37.2180667 L204.553267,39.5634 C204.1006,39.9027333 202.263933,41.8240667 197.9406,41.8240667 C193.645267,41.8240667 190.5086,39.1680667 190.5086,34.5614 C190.5086,29.9554 193.899267,27.3274 198.025267,27.3274 C202.1506,27.3274 205.005267,30.0680667 205.005267,34.1380667 C205.005267,34.8160667 204.9486,35.6360667 204.9486,35.6360667" id="Fill-28" fill="#000000"></path>
                <path d="M216.250533,31.7354667 L216.052533,31.7354667 C215.798533,31.5941333 215.2052,31.3968 214.413867,31.3968 C212.1812,31.3968 211.616533,33.4881333 211.616533,35.3248 L211.616533,41.5134667 L207.0952,41.5134667 L207.0952,27.5821333 L211.616533,27.5821333 L211.587867,29.5594667 L211.644533,29.5594667 C212.4352,28.0334667 213.594533,27.3274667 215.091867,27.3274667 C216.024533,27.3274667 216.5052,27.5821333 216.5052,27.5821333 L216.250533,31.7354667 Z" id="Fill-30" fill="#000000"></path>
                <g id="Group-34" transform="translate(216.666667, 27.292267)">
                    <mask id="mask-4" fill="white">
                        <use xlink:href="#path-3"></use>
                    </mask>
                    <g id="Clip-33"></g>
                    <path d="M7.83453333,2.9738 C5.9692,2.9738 5.00853333,4.44313333 4.95186667,5.7718 L10.6885333,5.7718 C10.6598667,4.4998 9.72786667,2.9738 7.83453333,2.9738 M14.8425333,8.3438 L4.92386667,8.3438 C5.12186667,10.3491333 6.64786667,11.2538 8.48453333,11.2538 C10.2932,11.2538 11.8758667,10.4624667 12.6665333,9.9258 L14.4472,12.2711333 C13.9945333,12.6104667 12.1578667,14.5318 7.83453333,14.5318 C3.5392,14.5318 0.402533333,11.8758 0.402533333,7.26913333 C0.402533333,2.66313333 3.7932,0.0351333333 7.9192,0.0351333333 C12.0445333,0.0351333333 14.8992,2.7758 14.8992,6.8458 C14.8992,7.5238 14.8425333,8.3438 14.8425333,8.3438" id="Fill-32" fill="#000000" mask="url(#mask-4)"></path>
                </g>
            </g>
        </g>
    </g>
</svg>